<?xml version="1.0" encoding="utf-8"?>
<!-- Generator: Adobe Illustrator 24.0.2, SVG Export Plug-In . SVG Version: 6.00 Build 0)  -->
<svg version="1.1" id="Layer_1" xmlns="http://www.w3.org/2000/svg" xmlns:xlink="http://www.w3.org/1999/xlink" x="0px" y="0px"
	 viewBox="0 0 394.9 384.1" style="enable-background:new 0 0 394.9 384.1;" xml:space="preserve">
<style type="text/css">
	.st0{opacity:0.2;fill:#EEEDED;}
</style>
<path class="st0" d="M118.3,35.1c20.4-1.8,43-11.1,64.6-22.8c-34.2,1.3-66.8,6.7-95.6,14.4c6.5,5.7,14.8,8.7,25.5,8.7
	C114.6,35.3,116.4,35.2,118.3,35.1 M241.9,34.2c5.3-6.1,12.6-11.7,18.8-17.2c-11.8-2-23.3-3.3-34.9-4.1c-1.3,0.6-2.7,1.4-3.9,2.3
	c-6.4,4.6-11.7,10.8-17,16.7c-3.9,4.3-6.8,9.2-10.6,13.8c-3.5,4.4-7.4,8.6-11.3,13.2C206.9,58.3,226.8,51.6,241.9,34.2 M373.9,76.7
	c7.2,0.3,14.1,0.7,21,1.5c0.1-0.6-7.7-8-12.3-11.5c3.3-2.8,6.4-5.3,9.5-7.8c-33.1,1.3-57.7-14-82.3-29.3
	c3.2,19.8,31.3,46.6,65.4,51.4C374.8,79.5,374.4,78.2,373.9,76.7 M307.5,81c8.1-6.6,7.9-17.6,1.2-26.3c-2.2-2.9-4.8-5.5-6.5-7.5
	c-7,5.8-13,11.7-19.8,16.9c-15,11.6-19.4,25-17.2,38.9c0.5,3.4,1.5,6.7,2.4,11C281.1,101.9,294.8,91.5,307.5,81 M26.2,135.9
	c0.6,0.3,1.6,0.7,2.6,1.2c7.2,4,34,10.1,47.7-4.7c9.5-10.5,20.8-36.8,3.4-48.1c-4.2-2.7-7.3-5.3-14.1-2c-5.6,2.9-9.4,8.1-12,14.1
	c-0.5,1.1-0.6,2.3-1,4c1.1-0.8,1.7-1.2,2.2-1.8c5.6-6.1,8.9-7.7,11.6-5.8c2.7,1.7,4.9,11.7,1.8,17.3c-8.2,14.8-23.7,19.7-31.4,15
	c-6.1-3.8-7.5-11.9-2.6-24c5.7-14.1,15.3-25.4,26.9-30.2c10.5-4.3,20.9-6,31.3-7.4c6.5-0.8,12.8,0.8,19.5,2.2
	c8.4,1.9,17.3,3.8,26.8,1.1c25.6-7.3,55.5-30.9,72.5-54.5c-3.4-0.2-6.8-0.3-10.2-0.3c-4.9,5.8-10.8,11.5-17.7,16.7
	c-19.7,15.2-39.3,23.1-57.7,22.2c-14.6-0.8-27.5-3.5-40.9-4.1c-8.3-0.4-16.3-0.9-25,0.6c-12.1,2.2-23.8,11.4-34,28.2
	c3.3,0.7,6.3,1.3,9.7,2.1c-14.1,12.7-25.4,27.5-29.1,47.2c5.8-4.1,11.3-7.4,16.9-10.7c-3.7,7.9-7.4,15.3-9.7,22.6
	c-2.4,7.7-2.1,14,0.6,18.2C18.3,148.5,21.9,142.6,26.2,135.9 M360.2,181.3c6.6,0.4,19.8,0.9,20,0.4c-37.1-18.7-48-44.5-54-76.1
	c-8,3.9-15.8,27.7-14.5,40.2c1.8,17.4,11.5,30,27.3,42.1c0.4-2.4,0.7-3.8,1.2-5.6c8.6,4,14,12.3,25,14.1
	C363.4,191,361.8,186.2,360.2,181.3 M205.2,209.2L205.2,209.2c7.5-3.2,16.6-12.3,18.3-18.5c-3.7,1-7.1,2.2-10.3,2.7
	c-6.9,0.9-11.6-2.5-12.8-9c-1-5.5,3-15.1,8.5-19.7c9-7.7,18.5-14.4,27.8-21.5c10.9-8,15.7-17.5,14.9-28.3
	c-1-14.4-13.1-24.7-15.3-26.8c18.8-23.9,41.2-43.8,63.9-62c-6.2-1.8-12.5-3.6-18.7-4.9c-20.5,17.4-40.4,35.9-59.7,57
	c-16.4-7.2-36.5-8.8-52.2,3.3c-10.1,7.8-14.8,17.3-18.9,27.3c-3.1,7.5-5.4,15.2-8,22.9c-3.6,10.4-11.2,18.9-19.1,22
	c-7.3,2.8-11.6-0.8-12.3-10.3c0-1.3-0.1-2.4-0.3-4.5c-5,6.3-6.9,12.8-8.2,18.7c-2.4,11.4,0.3,18.4,5,23c5.7,5.3,15.3,5.7,25-1.7
	c3.8-2.7,8.7-8.2,12.2-13.6c4.6-7.1,8.4-14.3,12-21.5c11.5-15.3,20.9-25.2,27.3-31.1c-7.1,10.6-12.5,21.8-17.2,33.2
	c-4.1,9.8-7.5,19.7-10.7,29.7c-0.4,1.2-0.6,2.5-1.1,4.8c1.7-1.7,2.7-2.3,3.5-3.3c13.6-16.4,28.9-31.3,44.1-45.9
	c1.5-1.4,2.7-3,4.1-4.6c-0.6,7.8-6.4,18-12.4,26.8c-2.2,2.3-4.3,4.6-6.3,7c-6.2,7.4-11.6,16.3-15,24.8c-4.4,11.3-0.6,18.5,5.9,22.9
	c3.8,2.6,8,4,12.9,4C195.8,212.3,200.3,211.3,205.2,209.2 M293.9,254.8c1.6,5.7,3.3,11.4,5.1,17.7c7.5-1.5,12-7.3,15.3-13.4
	c3.2-6.1,4.9-13,7.3-19.2c3,2.6,6.1,5.4,9.2,8.1c9.7-11.5,11.3-23.5,2.5-37.6c-7.2-11.5-15.7-22-23.9-32.4
	c-9.3-11.9-18.7-23.3-19.4-38.9c-0.7-14.6,7.2-27.3,19.5-37.7c9.8-8.3,20.7-11.4,34.4-11.4c0.4,0,1.6-4.1,1.8-4.8
	c-1.2-5.7-11.4-3.1-16.6-1.8c-38.7,9.8-63.7,39.2-52.1,68.9c4.5,11.8,19.5,30.6,25.3,42.1c4.8,9.4,9.1,18.9,7.1,30
	c-2.6,13.1-15.3,25.9-31.6,23.2c-9.2-1.5-16.5-9.1-16.4-18.4c0.1-5.9,5.2-13.8,11-16.4c3.8-1.6,7.8-2.1,10.7,0.6
	c2.7,2.7,2.7,6,0.9,9.6c-0.3,0.6-0.4,1.2-0.5,1.9c6-0.5,13.4-8.6,12.6-14.9c-1.6-11.1-26.5-19.9-38-12.4
	c-10.5,6.8-16.2,22.8-12.4,35.6c3.6,12.4,9.2,18.9,21,22.7c1.3,0.5,2.3,1,3.3,1.5c-2.3,5.9-4.3,11.1-6.3,16.7c0.7,0,1.5,0,2.3,0
	C279.3,274.1,286.5,266,293.9,254.8 M109.6,373.4L109.6,373.4c3.6-4.8,5.6-12.7,6.5-22.9c0.9-10.3,0.5-19.6-0.3-28.4
	c3.8,4.2,11.3,5.5,15.4,2.5c-1.1-4.1-2.4-7.8-3-12.2c-0.4-3.1-0.4-6.4-0.5-9.7c7.1-5.2,15.2-12.2,16.4-25.3c0.2-2.1,0.1-4,0.1-6
	c2.6,8.3,7.2,16.9,9.5,24.1c2.1,6.5,5.8,12.7,9.4,15.9c1.1,1.1,2.4,1.4,3.7,2.1c0.8-2.1,1.4-4.4,2.2-6.4c0.3-1,0.5-2,0.9-4
	c2.4,2.5,4.4,4.8,6.8,6.6c1.8,1.3,4,1.9,6.2,2.3c4.6,1,5.4-0.1,5.4-6.9c0-2.2,0.1-4.6,0.2-7.5c10.1,3.9,15.7-4.3,15.5-4.5
	c-2.1-2-4-3.2-4.5-6.3c-0.5-2.9,0.7-7.5,2.1-11.4c2.9-7.8,1-21.2-4.7-26.3c-4-3.7-11.5-3-16.8,2.1c-6.1,5.7-8,23.1-4.6,28.6
	c2.1,3.3,3.5,3.3,7.5,0.5c-1-2.3-3.1-4.5-2.9-7.1c0.3-2.9,2.3-6.9,4.4-9.2c2.8-3.1,6-3.3,8.3-0.8c4,4.5,4.1,12.2,0.4,19.4
	c-1,2-3.6,5.7-5,6.7c-5.7,4.2-12.5,5.4-16.7,2.4c-4.7-3.3-7.5-8.6-8-16.5c-1.1-13.8,6.1-35.3,5.4-49c-0.5-12.7-9.5-17.7-20.1-19.8
	c-4.7-0.9-16.7-2.3-19.1-3.2c-12.5-4.5-23.4-3.8-30.1,7.8c-6.9,11.8-10.6,34.2-17.9,46c-4.2,6.7-9.1,10.1-14.8,11.1
	c-5.2,0.7-10.6-3.3-13.8-9.7c-0.8-1.5-1.3-6-1.4-8.3c0.2-8.1,3.8-15,9.4-17c3.3-1.2,6,0.4,7.1,4.5c0.8,2.9,0.7,7.4-0.4,10.2
	c-0.9,2.4-3.7,3.3-5.7,4.9c2.3,4.3,3.6,5,6.9,3c5.6-3.3,11.4-19.4,8.5-27.2c-2.2-6.9-8.6-10.9-13.9-9.4
	c-7.5,2.1-14.6,12.6-15.8,21.1c-0.5,4.1-1.7,8.6-3.3,11.1c-1.9,2.6-4.1,2.8-7,3.5c-0.2,0.1-0.4,0.6-0.8,1.2
	c1.6,8.9,7.7,7.4,12.5,9.8c-1.2,2.7-2.2,4.8-3.3,6.8c-3.2,6-3,7.4,1.7,8.4c2.1,0.6,4.3,1.2,6.6,0.8c2.9-0.4,5.8-1.7,9.1-2.8
	c-0.5,1.9-0.8,2.9-1,3.8c-0.3,2.2-0.8,4.5-1.1,6.7c0.6-0.1,1.1-0.1,1.6,0c0.9,0,1.9,0.1,2.8-0.2c4.7-1.3,7.8-4.2,13.7-7.7
	c5.5-3.3,12.6-11.5,18.4-19.8c-0.7,2.9-1.5,5.7-2.5,8.2c-3.7,9.5-3,15.4,0.7,20l4.2,6.8c-0.4,1-0.9,2.2-1.3,3.5
	c-2,6.4-5,11.4-7.3,17.7c1.1,4,8.2,7.8,13,6.1c-2.7,8.6-4.5,18-4.6,29c0.1,10,2.4,16.2,5.1,20.9c0.4,0.7,1,1,1.6,1
	C107.6,375.1,108.7,374.4,109.6,373.4"/>
</svg>
