<?xml version="1.0" encoding="utf-8"?>
<!-- Generator: Adobe Illustrator 24.0.2, SVG Export Plug-In . SVG Version: 6.00 Build 0)  -->
<svg version="1.1" id="Layer_1" xmlns="http://www.w3.org/2000/svg" xmlns:xlink="http://www.w3.org/1999/xlink" x="0px" y="0px"
	 viewBox="0 0 721 727.1" style="enable-background:new 0 0 721 727.1;" xml:space="preserve">
<style type="text/css">
	.st0{clip-path:url(#SVGID_2_);fill:url(#SVGID_3_);}
	.st1{opacity:0.1;clip-path:url(#SVGID_2_);fill:#EEEDED;}
	.st2{opacity:0.2;clip-path:url(#SVGID_2_);fill:#EEEDED;}
	.st3{clip-path:url(#SVGID_2_);fill:none;}
</style>
<g>
	<defs>
		<rect id="SVGID_1_" width="721" height="727.1"/>
	</defs>
	<clipPath id="SVGID_2_">
		<use xlink:href="#SVGID_1_"  style="overflow:visible;"/>
	</clipPath>
	
		<radialGradient id="SVGID_3_" cx="1004.5732" cy="652.0866" r="1169.2789" gradientTransform="matrix(0 -0.9085 1.7697 0 -939.1974 1461.6014)" gradientUnits="userSpaceOnUse">
		<stop  offset="0" style="stop-color:#9E1A38"/>
		<stop  offset="0.1962" style="stop-color:#871E33"/>
		<stop  offset="0.6171" style="stop-color:#501D23"/>
		<stop  offset="1" style="stop-color:#1E0907"/>
	</radialGradient>
	<polygon class="st0" points="1996.7,-14.1 1996.7,727.1 -17.9,727.1 -17.9,-14.1 	"/>
	<path class="st1" d="M200.1,662.7c-14.8,1.3-31,8-46.6,16.5c24.6-0.9,48.2-4.9,69-10.4c-4.7-4.1-10.7-6.2-18.4-6.2
		C202.8,662.5,201.5,662.6,200.1,662.7 M111,663.3c-3.8,4.4-9.1,8.4-13.6,12.4c8.5,1.5,16.8,2.4,25.2,2.9c1-0.4,1.9-1,2.8-1.7
		c4.6-3.3,8.4-7.8,12.3-12c2.8-3.1,4.9-6.7,7.6-10c2.5-3.2,5.4-6.2,8.1-9.5C136.2,646,121.8,650.8,111,663.3 M15.7,632.7
		c-5.2-0.2-10.2-0.5-15.2-1.1c0,0.4,5.6,5.8,8.8,8.3c-2.4,2-4.6,3.8-6.9,5.7c23.9-1,41.6,10.1,59.4,21.2
		c-2.3-14.3-22.6-33.6-47.2-37.1C15.1,630.6,15.3,631.6,15.7,632.7 M63.7,629.6c-5.8,4.8-5.7,12.7-0.9,18.9c1.6,2.1,3.5,3.9,4.7,5.4
		c5.1-4.2,9.4-8.4,14.3-12.2c10.8-8.3,14-18,12.4-28.1c-0.4-2.5-1.1-4.8-1.7-7.9C82.7,614.5,72.8,622,63.7,629.6 M266.6,590
		c-0.4-0.2-1.1-0.5-1.9-0.9c-5.2-2.9-24.5-7.3-34.4,3.4c-6.8,7.6-15,26.5-2.5,34.7c3.1,1.9,5.3,3.8,10.2,1.4c4-2.1,6.7-5.8,8.6-10.1
		c0.4-0.8,0.4-1.7,0.7-2.9c-0.8,0.6-1.2,0.8-1.6,1.3c-4,4.4-6.4,5.5-8.3,4.2c-2-1.2-3.5-8.5-1.3-12.5c5.9-10.7,17.1-14.2,22.7-10.8
		c4.4,2.7,5.4,8.6,1.9,17.3c-4.1,10.2-11.1,18.3-19.4,21.8c-7.6,3.1-15.1,4.3-22.6,5.3c-4.7,0.5-9.3-0.6-14.1-1.6
		c-6.1-1.4-12.5-2.7-19.3-0.8c-18.5,5.3-40.1,22.3-52.3,39.3c2.5,0.2,4.9,0.2,7.3,0.2c3.6-4.2,7.8-8.3,12.8-12.1
		c14.2-11,28.3-16.6,41.6-16c10.5,0.5,19.8,2.5,29.5,3c6,0.3,11.8,0.6,18-0.4c8.7-1.6,17.2-8.2,24.5-20.3c-2.4-0.5-4.5-0.9-7-1.5
		c10.2-9.2,18.3-19.9,21-34c-4.2,2.9-8.1,5.4-12.2,7.7c2.7-5.7,5.3-11.1,7-16.3c1.7-5.6,1.5-10.1-0.4-13.1
		C272.3,580.8,269.7,585.1,266.6,590 M25.6,557.2c-4.8-0.3-14.3-0.7-14.4-0.3c26.7,13.5,34.6,32.1,39,54.9c5.8-2.8,11.4-20,10.4-29
		c-1.3-12.5-8.3-21.7-19.7-30.3c-0.3,1.7-0.5,2.7-0.8,4c-6.2-2.9-10.1-8.9-18.1-10.2C23.3,550.2,24.4,553.6,25.6,557.2 M137.4,537.1
		L137.4,537.1c-5.4,2.3-12,8.8-13.2,13.3c2.7-0.7,5.2-1.6,7.5-2c5-0.6,8.4,1.8,9.3,6.5c0.7,4-2.1,10.9-6.1,14.2
		c-6.5,5.5-13.4,10.4-20.1,15.5c-7.8,5.8-11.3,12.6-10.8,20.4c0.7,10.4,9.5,17.9,11,19.3c-13.6,17.2-29.7,31.6-46.1,44.7
		c4.5,1.3,9,2.6,13.5,3.6c14.8-12.6,29.2-25.9,43.1-41.1c11.8,5.2,26.3,6.4,37.7-2.4c7.3-5.7,10.7-12.5,13.6-19.7
		c2.2-5.4,3.9-11,5.8-16.5c2.6-7.5,8.1-13.6,13.8-15.9c5.3-2,8.4,0.6,8.9,7.4c0,0.9,0.1,1.7,0.2,3.3c3.6-4.6,4.9-9.2,5.9-13.5
		c1.8-8.3-0.2-13.3-3.6-16.6c-4.1-3.8-11-4.1-18.1,1.2c-2.8,2-6.3,5.9-8.8,9.8c-3.3,5.1-6.1,10.3-8.6,15.5
		c-8.3,11-15.1,18.2-19.7,22.5c5.1-7.6,9-15.7,12.4-23.9c3-7.1,5.4-14.2,7.8-21.5c0.3-0.9,0.4-1.8,0.8-3.5c-1.3,1.2-2,1.6-2.5,2.4
		c-9.8,11.9-20.8,22.6-31.8,33.1c-1.1,1-1.9,2.2-3,3.3c0.5-5.6,4.6-13,8.9-19.3c1.6-1.6,3.1-3.3,4.6-5.1c4.5-5.3,8.4-11.7,10.9-17.9
		c3.1-8.1,0.5-13.4-4.3-16.5c-2.7-1.9-5.8-2.9-9.3-2.9C144.2,534.8,141,535.6,137.4,537.1 M73.4,504.1c-1.2-4.1-2.4-8.3-3.7-12.7
		c-5.4,1.1-8.7,5.2-11,9.7c-2.3,4.4-3.5,9.3-5.3,13.9c-2.2-1.9-4.4-3.9-6.6-5.9c-7,8.3-8.2,17-1.8,27.1c5.2,8.3,11.3,15.9,17.2,23.4
		c6.7,8.6,13.5,16.8,14,28.1c0.5,10.5-5.2,19.7-14.1,27.2c-7.1,6-15,8.2-24.9,8.3c-0.3,0-1.2,2.9-1.3,3.5c0.9,4.1,8.3,2.2,12,1.3
		c27.9-7.1,46-28.3,37.6-49.7c-3.2-8.5-14.1-22.1-18.3-30.4c-3.5-6.8-6.6-13.6-5.1-21.6c1.9-9.4,11.1-18.7,22.8-16.7
		c6.6,1.1,11.9,6.6,11.9,13.2c-0.1,4.3-3.7,10-8,11.8c-2.7,1.1-5.6,1.5-7.7-0.4c-1.9-1.9-1.9-4.3-0.7-7c0.2-0.4,0.3-0.9,0.4-1.4
		c-4.3,0.3-9.7,6.2-9.1,10.8c1.1,8,19.1,14.4,27.4,8.9c7.6-4.9,11.7-16.4,8.9-25.7c-2.6-8.9-6.7-13.6-15.2-16.4
		c-0.9-0.4-1.7-0.7-2.4-1.1c1.7-4.3,3.1-8,4.5-12.1c-0.5,0-1.1,0-1.6,0C84,490.2,78.7,496.1,73.4,504.1 M206.4,418.6L206.4,418.6
		c-2.6,3.4-4,9.2-4.7,16.5c-0.6,7.5-0.4,14.1,0.2,20.5c-2.7-3-8.2-4-11.1-1.8c0.8,3,1.7,5.6,2.1,8.8c0.3,2.2,0.3,4.6,0.3,7
		c-5.1,3.7-11,8.8-11.8,18.3c-0.1,1.5-0.1,2.9-0.1,4.3c-1.9-6-5.2-12.2-6.9-17.4c-1.5-4.7-4.2-9.1-6.8-11.5c-0.8-0.8-1.7-1-2.7-1.5
		c-0.6,1.5-1,3.2-1.6,4.6c-0.2,0.7-0.3,1.4-0.6,2.9c-1.8-1.8-3.2-3.5-4.9-4.7c-1.3-0.9-2.9-1.4-4.5-1.7c-3.3-0.8-3.9,0-3.9,4.9
		c0,1.6-0.1,3.3-0.1,5.4c-7.3-2.8-11.3,3.1-11.2,3.3c1.5,1.4,2.9,2.3,3.2,4.5c0.4,2.1-0.5,5.4-1.5,8.2c-2.1,5.7-0.7,15.3,3.4,19
		c2.9,2.7,8.3,2.2,12.1-1.5c4.4-4.1,5.8-16.7,3.3-20.6c-1.5-2.4-2.5-2.4-5.4-0.4c0.8,1.6,2.3,3.2,2.1,5.1c-0.2,2.1-1.7,5-3.2,6.6
		c-2,2.2-4.3,2.4-6,0.6c-2.9-3.2-2.9-8.8-0.3-14c0.8-1.4,2.6-4.1,3.6-4.9c4.1-3,9-3.9,12-1.7c3.4,2.4,5.4,6.2,5.8,11.9
		c0.8,9.9-4.4,25.4-3.9,35.3c0.3,9.2,6.9,12.8,14.5,14.3c3.4,0.7,12,1.6,13.8,2.3c9,3.3,16.9,2.7,21.7-5.6c5-8.5,7.6-24.7,12.9-33.2
		c3.1-4.8,6.6-7.3,10.7-8c3.7-0.5,7.6,2.4,9.9,7c0.6,1.1,0.9,4.3,1,6c-0.1,5.9-2.7,10.8-6.8,12.3c-2.4,0.9-4.3-0.3-5.1-3.2
		c-0.5-2.1-0.5-5.4,0.3-7.4c0.7-1.7,2.7-2.4,4.1-3.5c-1.6-3.1-2.6-3.6-5-2.2c-4,2.4-8.2,14-6.2,19.6c1.6,5,6.2,7.9,10,6.8
		c5.4-1.5,10.6-9.1,11.4-15.2c0.4-2.9,1.2-6.2,2.4-8c1.3-1.9,2.9-2,5.1-2.5c0.2-0.1,0.3-0.4,0.6-0.9c-1.2-6.4-5.6-5.4-9-7.1
		c0.9-2,1.6-3.4,2.4-4.9c2.3-4.3,2.1-5.3-1.2-6.1c-1.5-0.4-3.1-0.8-4.8-0.5c-2.1,0.3-4.2,1.2-6.5,2c0.4-1.4,0.6-2.1,0.7-2.8
		c0.2-1.6,0.6-3.3,0.8-4.9c-0.4,0-0.8,0-1.2,0c-0.7,0-1.3-0.1-2,0.2c-3.4,0.9-5.6,3-9.9,5.5c-4,2.4-9.1,8.3-13.3,14.3
		c0.5-2.1,1.1-4.1,1.8-6c2.7-6.9,2.2-11.1-0.5-14.4l-3-4.9c0.3-0.7,0.7-1.6,1-2.5c1.4-4.6,3.6-8.2,5.3-12.7
		c-0.8-2.9-5.9-5.6-9.4-4.4c1.9-6.2,3.3-13,3.3-20.9c0-7.2-1.8-11.7-3.7-15.1c-0.3-0.5-0.7-0.7-1.1-0.7
		C207.9,417.3,207.1,417.9,206.4,418.6"/>
	<path class="st2" d="M454.1-23.6c20.4-1.8,43-11.1,64.6-22.8c-34.2,1.3-66.8,6.7-95.6,14.4c6.5,5.7,14.8,8.7,25.5,8.7
		C450.4-23.4,452.2-23.5,454.1-23.6 M577.7-24.5c5.3-6.1,12.6-11.7,18.8-17.2c-11.8-2-23.3-3.3-34.9-4.1c-1.3,0.6-2.7,1.4-3.9,2.3
		c-6.4,4.6-11.7,10.8-17,16.7c-3.9,4.3-6.8,9.2-10.6,13.8c-3.5,4.4-7.4,8.6-11.3,13.2C542.7-0.4,562.7-7.1,577.7-24.5 M709.7,18
		c7.2,0.3,14.1,0.7,21,1.5c0.1-0.6-7.7-8-12.3-11.5c3.3-2.8,6.4-5.3,9.5-7.8c-33.1,1.3-57.7-14-82.3-29.3
		c3.2,19.8,31.3,46.6,65.4,51.4C710.6,20.8,710.2,19.5,709.7,18 M643.3,22.3c8.1-6.6,7.9-17.6,1.2-26.3c-2.2-2.9-4.8-5.5-6.5-7.5
		c-7,5.8-13,11.7-19.8,16.9c-15,11.6-19.4,25-17.2,38.9c0.5,3.4,1.5,6.7,2.4,11C616.9,43.2,630.6,32.8,643.3,22.3 M362,77.2
		c0.6,0.3,1.6,0.7,2.6,1.2c7.2,4,34,10.1,47.7-4.7c9.5-10.5,20.8-36.8,3.4-48.1c-4.2-2.7-7.3-5.3-14.1-2c-5.6,2.9-9.4,8.1-12,14.1
		c-0.5,1.1-0.6,2.3-1,4c1.1-0.8,1.7-1.2,2.2-1.8c5.6-6.1,8.9-7.7,11.6-5.8c2.7,1.7,4.9,11.7,1.8,17.3C396,66,380.5,71,372.8,66.3
		c-6.1-3.8-7.5-11.9-2.6-24c5.7-14.1,15.3-25.4,26.9-30.2c10.5-4.3,20.9-6,31.3-7.4c6.5-0.8,12.8,0.8,19.5,2.2
		c8.4,1.9,17.3,3.8,26.8,1.1c25.6-7.3,55.5-30.9,72.5-54.5c-3.4-0.2-6.8-0.3-10.2-0.3c-4.9,5.8-10.8,11.5-17.7,16.7
		c-19.7,15.2-39.3,23.1-57.7,22.2c-14.6-0.8-27.5-3.5-40.9-4.1c-8.3-0.4-16.3-0.9-25,0.6c-12.1,2.2-23.8,11.4-34,28.2
		c3.3,0.7,6.3,1.3,9.7,2.1c-14.1,12.7-25.4,27.5-29.1,47.2c5.8-4.1,11.3-7.4,16.9-10.7c-3.7,7.9-7.4,15.3-9.7,22.6
		c-2.4,7.7-2.1,14,0.6,18.2C354.1,89.8,357.7,83.9,362,77.2 M696,122.6c6.6,0.4,19.8,0.9,20,0.4c-37.1-18.7-48-44.5-54-76.1
		c-8,3.9-15.8,27.7-14.5,40.2c1.8,17.4,11.5,30,27.3,42.1c0.4-2.4,0.7-3.8,1.2-5.6c8.6,4,14,12.3,25,14.1
		C699.2,132.3,697.6,127.5,696,122.6 M541.1,150.5L541.1,150.5c7.5-3.2,16.6-12.3,18.3-18.5c-3.7,1-7.1,2.2-10.3,2.7
		c-6.9,0.9-11.6-2.5-12.8-9c-1-5.5,3-15.1,8.5-19.7c9-7.7,18.5-14.4,27.8-21.5c10.9-8,15.7-17.5,14.9-28.3
		c-1-14.4-13.1-24.7-15.3-26.8c18.8-23.9,41.2-43.8,63.9-62c-6.2-1.8-12.5-3.6-18.7-4.9c-20.5,17.4-40.4,35.9-59.7,57
		c-16.4-7.2-36.5-8.8-52.2,3.3c-10.1,7.8-14.8,17.3-18.9,27.3c-3.1,7.5-5.4,15.2-8,22.9c-3.6,10.4-11.2,18.9-19.1,22
		c-7.3,2.8-11.6-0.8-12.3-10.3c0-1.3-0.1-2.4-0.3-4.5c-5,6.3-6.9,12.8-8.2,18.7c-2.4,11.4,0.3,18.4,5,23c5.7,5.3,15.3,5.7,25-1.7
		c3.8-2.7,8.7-8.2,12.2-13.6c4.6-7.1,8.4-14.3,12-21.5c11.5-15.3,20.9-25.2,27.3-31.1c-7.1,10.6-12.5,21.8-17.2,33.2
		c-4.1,9.8-7.5,19.7-10.7,29.7c-0.4,1.2-0.6,2.5-1.1,4.8c1.7-1.7,2.7-2.3,3.5-3.3c13.6-16.4,28.9-31.3,44.1-45.9
		c1.5-1.4,2.7-3,4.1-4.6c-0.6,7.8-6.4,18-12.4,26.8c-2.2,2.3-4.3,4.6-6.3,7c-6.2,7.4-11.6,16.3-15,24.8c-4.4,11.3-0.6,18.5,5.9,22.9
		c3.8,2.6,8,4,12.9,4C531.6,153.6,536.1,152.6,541.1,150.5 M629.8,196.1c1.6,5.7,3.3,11.4,5.1,17.7c7.5-1.5,12-7.3,15.3-13.4
		c3.2-6.1,4.9-13,7.3-19.2c3,2.6,6.1,5.4,9.2,8.1c9.7-11.5,11.3-23.5,2.5-37.6c-7.2-11.5-15.7-22-23.9-32.4
		c-9.3-11.9-18.7-23.3-19.4-38.9c-0.7-14.6,7.2-27.3,19.5-37.7c9.8-8.3,20.7-11.4,34.4-11.4c0.4,0,1.6-4.1,1.8-4.8
		c-1.2-5.7-11.4-3.1-16.6-1.8c-38.7,9.8-63.7,39.2-52.1,68.9c4.5,11.8,19.5,30.6,25.3,42.1c4.8,9.4,9.1,18.9,7.1,30
		c-2.6,13.1-15.3,25.9-31.6,23.2c-9.2-1.5-16.5-9.1-16.4-18.4c0.1-5.9,5.2-13.8,11-16.4c3.8-1.6,7.8-2.1,10.7,0.6
		c2.7,2.7,2.7,6,0.9,9.6c-0.3,0.6-0.4,1.2-0.5,1.9c6-0.5,13.4-8.6,12.6-14.9c-1.6-11.1-26.5-19.9-38-12.4
		c-10.5,6.8-16.2,22.8-12.4,35.6c3.6,12.4,9.2,18.9,21,22.7c1.3,0.5,2.3,1,3.3,1.5c-2.3,5.9-4.3,11.1-6.3,16.7c0.7,0,1.5,0,2.3,0
		C615.1,215.4,622.4,207.3,629.8,196.1 M445.4,314.7L445.4,314.7c3.6-4.8,5.6-12.7,6.5-22.9c0.9-10.3,0.5-19.6-0.3-28.4
		c3.8,4.2,11.3,5.5,15.4,2.5c-1.1-4.1-2.4-7.8-3-12.2c-0.4-3.1-0.4-6.4-0.5-9.7c7.1-5.2,15.2-12.2,16.4-25.3c0.2-2.1,0.1-4,0.1-6
		c2.6,8.3,7.2,16.9,9.5,24.1c2.1,6.5,5.8,12.7,9.4,15.9c1.1,1.1,2.4,1.4,3.7,2.1c0.8-2.1,1.4-4.4,2.2-6.4c0.3-1,0.5-2,0.9-4
		c2.4,2.5,4.4,4.8,6.8,6.6c1.8,1.3,4,1.9,6.2,2.3c4.6,1,5.4-0.1,5.4-6.9c0-2.2,0.1-4.6,0.2-7.5c10.1,3.9,15.7-4.3,15.5-4.5
		c-2.1-2-4-3.2-4.5-6.3c-0.5-2.9,0.7-7.5,2.1-11.4c2.9-7.8,1-21.2-4.7-26.3c-4-3.7-11.5-3-16.8,2.1c-6.1,5.7-8,23.1-4.6,28.6
		c2.1,3.3,3.5,3.3,7.5,0.5c-1-2.3-3.1-4.5-2.9-7.1c0.3-2.9,2.3-6.9,4.4-9.2c2.8-3.1,6-3.3,8.3-0.8c4,4.5,4.1,12.2,0.4,19.4
		c-1,2-3.6,5.7-5,6.7c-5.7,4.2-12.5,5.4-16.7,2.4c-4.7-3.3-7.5-8.6-8-16.5c-1.1-13.8,6.1-35.3,5.4-49c-0.5-12.7-9.5-17.7-20.1-19.8
		c-4.7-0.9-16.7-2.3-19.1-3.2c-12.5-4.5-23.4-3.8-30.1,7.8c-6.9,11.8-10.6,34.2-17.9,46c-4.2,6.7-9.1,10.1-14.8,11.1
		c-5.2,0.7-10.6-3.3-13.8-9.7c-0.8-1.5-1.3-6-1.4-8.3c0.2-8.1,3.8-15,9.4-17c3.3-1.2,6,0.4,7.1,4.5c0.8,2.9,0.7,7.4-0.4,10.2
		c-0.9,2.4-3.7,3.3-5.7,4.9c2.3,4.3,3.6,5,6.9,3c5.6-3.3,11.4-19.4,8.5-27.2c-2.2-6.9-8.6-10.9-13.9-9.4
		c-7.5,2.1-14.6,12.6-15.8,21.1c-0.5,4.1-1.7,8.6-3.3,11.1c-1.9,2.6-4.1,2.8-7,3.5c-0.2,0.1-0.4,0.6-0.8,1.2
		c1.6,8.9,7.7,7.4,12.5,9.8c-1.2,2.7-2.2,4.8-3.3,6.8c-3.2,6-3,7.4,1.7,8.4c2.1,0.6,4.3,1.2,6.6,0.8c2.9-0.4,5.8-1.7,9.1-2.8
		c-0.5,1.9-0.8,2.9-1,3.8c-0.3,2.2-0.8,4.5-1.1,6.7c0.6-0.1,1.1-0.1,1.6,0c0.9,0,1.9,0.1,2.8-0.2c4.7-1.3,7.8-4.2,13.7-7.7
		c5.5-3.3,12.6-11.5,18.4-19.8c-0.7,2.9-1.5,5.7-2.5,8.2c-3.7,9.5-3,15.4,0.7,20l4.2,6.8c-0.4,1-0.9,2.2-1.3,3.5
		c-2,6.4-5,11.4-7.3,17.7c1.1,4,8.2,7.8,13,6.1c-2.7,8.6-4.5,18-4.6,29c0.1,10,2.4,16.2,5.1,20.9c0.4,0.7,1,1,1.6,1
		C443.4,316.4,444.5,315.7,445.4,314.7"/>
	
		<rect x="186.9" y="-186.9" transform="matrix(-1.836970e-16 1 -1 -1.836970e-16 991.8221 -186.9344)" class="st3" width="804.9" height="1178.8"/>
</g>
</svg>
