<?xml version="1.0" encoding="utf-8"?>
<!-- Generator: Adobe Illustrator 24.0.2, SVG Export Plug-In . SVG Version: 6.00 Build 0)  -->
<svg version="1.1" id="Layer_1" xmlns="http://www.w3.org/2000/svg" xmlns:xlink="http://www.w3.org/1999/xlink" x="0px" y="0px"
	 viewBox="0 0 259.8 266.5" style="enable-background:new 0 0 259.8 266.5;" xml:space="preserve">
<style type="text/css">
	.st0{fill:#45A235;}
	.st1{fill:#252127;}
	.st2{fill:#DDDBDD;}
	.st3{fill:#FFFFFF;}
	.st4{fill:#F0F0F1;}
	.st5{fill:#3A3640;}
	.st6{fill:#71C6F0;stroke:#D3A31E;stroke-width:6;stroke-miterlimit:10;}
</style>
<symbol  id="New_Symbol" viewBox="-2728.6 -1323.1 5457.2 2646.2">
	<g>
		<path class="st0" d="M-1620.4-1116.8c-330.7,0-643.5,150.7-836.9,403.3c-168.4,219.8-247.3,511.1-216.7,799.1
			c30.7,288.8,168.6,546.4,378.2,706.9c166.6,127.6,378.1,197.9,595.5,197.9c96,0,191.1-13.6,282.6-40.3l44-12.9l-137.2-571.7
			l-46.6,10.9c-13.1,3.1-27.6,4.6-43.2,4.6c-78.3,0-174.8-38.1-258.1-101.9c-91-69.7-148.7-163.9-162.3-265.1
			c-13.9-103.1,16.4-206.6,87.5-299.5c81.6-106.6,190.9-165.4,307.6-165.4c79.3,0,157.8,28,227.1,81.1
			c72.6,55.6,125.6,128.5,143.5,192.2l-407.4-164.3l-150.7,504.3L-938,539.2l23.1-23.4c32.4-32.8,60.1-64.5,87.1-99.8
			C-490.4-24.7-549.1-577.2-967.6-897.7c-184.5-141.2-416.3-219.1-652.7-219.1C-1620.3-1116.8-1620.4-1116.8-1620.4-1116.8z"/>
		<path class="st1" d="M-1700.3,942.3c90.2,0,181-12.6,269.1-38.4l-115.4-480.6c-16.9,4-35.1,5.9-54.1,5.9
			c-87.7,0-194.5-40.7-287.3-111.8c-208.8-159.9-245.3-421.1-83.8-632.1c92.8-121.2,218.2-184.2,345.8-184.2
			c87.7,0,176.5,29.8,256.4,91c115.1,88.1,183,211.2,166.6,303.4l-428.8-172.9l-123.3,412.6l806,346.8
			c30.4-30.8,56.9-61.1,83.1-95.2C-544.6-33.1-600.5-556-996.9-859.5c-184.2-141-404.8-209.2-623.4-209.2
			c-304.9,0-605.8,132.5-798.8,384.4c-337.8,441.1-265.1,1118.7,152.5,1438.6C-2105.5,877.7-1904.3,942.3-1700.3,942.3
			 M-1700.3,1038.6c-227.9,0-449.8-73.8-624.8-207.8c-220-168.5-364.6-438.2-396.8-740.1c-31.9-300.1,50.6-603.9,226.3-833.5
			c102.2-133.5,238.1-242.5,392.9-315.3c148.8-69.9,315.5-106.9,482.3-106.9c246.9,0,489.1,81.3,681.9,229
			c213,163.1,345.1,392.5,371.8,645.8c26.6,251.6-52.7,512.8-223.1,735.4c-28.3,36.9-57.2,70.1-91,104.3l-46.2,46.8l-60.4-26
			l-474-203.9l8.3,34.4l115.4,480.6l21.4,89.1l-88,25.7C-1500.1,1024.4-1599.7,1038.6-1700.3,1038.6L-1700.3,1038.6z M-1697.6-393.9
			c-74.3,18.5-142.8,65.8-197.8,137.7c-63.2,82.5-90.2,173.7-78,263.8c12.1,89.8,61.9,170.5,143.9,233.3
			c74.1,56.7,161.8,92,228.8,92c11.9,0,22.7-1.1,32.2-3.3l14-3.3l-238.8-102.7l-78.7-33.9l24.5-82.1l123.3-412.6L-1697.6-393.9
			L-1697.6-393.9z M-1674.9-398.6l79,31.8l229.4,92.5c-17.5-19.7-38.1-39.2-61.7-57.2c-60.8-46.6-129.2-71.1-197.8-71.1
			C-1642.5-402.7-1658.8-401.3-1674.9-398.6L-1674.9-398.6z"/>
	</g>
	<g>
		<path class="st2" d="M-864.1,237.6c-8.8-31.9-11.8-67.1-25.3-97.4c-8-18.1-25.8-30.8-42.4-40.9c-111-67.3-248.5-89-370.8-128.5
			c-100.9-32.5-219.6-64.6-325.8-40.7c-30.4,6.9-55.5,18.8-75.9,34.5l72.3-242l428.8,172.9c16.4-92.2-51.5-215.2-166.6-303.4
			c-166-127.1-370.2-118.7-524,10.9c8.7-45.5,1.7-92.6-30.8-130.4c-44.3-51.5-122.3-67.3-179.1-25.3
			c-50.6,37.4-73.1,96.4-96.3,152.6c-18.2,44.3-35.8,102.2-81.8,125.6c-29.3,14.9-63.1,18-95.7,17.1c-15.3-0.4-38.5-6.7-52.9-2.7
			c-11.6,3.2-23.2,24.3-30.3,33.4c-48.9,62.5-81.4,138.7-99.4,215.7c-27.1,115.5-28.9,233.7-6.4,348.7
			c-120.5-328.3-78-727.7,147.3-1021.9c331.3-432.5,981.1-513,1422.2-175.2C-623.4-573.5-552.3-92.8-814.3,313
			C-835.8,290.6-856.4,265.3-864.1,237.6z"/>
	</g>
	<g>
		<polygon class="st0" points="1186,-953.1 1680,1138.8 2356.2,979.1 2025.6,-421 2670.7,-573.3 2507.3,-1265.2 		"/>
		<path class="st1" d="M1715.8,1080.9l582.5-137.6L1967.7-456.7l645.1-152.4l-141.2-598.1l-1227.7,290L1715.8,1080.9 M1644.2,1196.8
			l-22.1-93.7L1150.2-895.2l-22.1-93.7l93.7-22.1l1227.7-290l93.7-22.1l22.1,93.7l141.2,598.1l22.1,93.7l-93.7,22.1l-551.5,130.3
			L2392,921.2l22.1,93.7l-93.7,22.1l-582.5,137.6L1644.2,1196.8L1644.2,1196.8z"/>
	</g>
	<g>
		<path class="st2" d="M1967.7-456.7L2095.3,84c-13.3-14-27.6-27.7-43.1-41.3c-44.6-39.2-77.6-98.4-98-154.6
			c-25.9-71-8.2-150.1,22.4-179.7c-22.3-30.4-24.1-49.1-63-64.8c-43.7-17.6-91.1,12.2-136,11.3c-38.1-0.8-91-8.8-123,17.8
			c-28.5,23.7-24.2,55.3-18.2,88.6c24.3,133.8,19.8,275.3-10.5,407.5c-14.9,65.3-32.6,130.8-59.8,192.2c-4.1,9.3-8.9,18.5-13.8,27.7
			L1243.9-917.3l1227.7-290l141.2,598.1L1967.7-456.7z"/>
	</g>
	<g>
		<path class="st0" d="M-2568.4-412.4l40.6,8.3c-35.8,22.5-61.3,60.9-71.4,110.7c-20.6,101.9,33.8,192.8,126.4,211.6
			c10.8,2.2,21.9,3.3,32.9,3.3c81.2,0,149.8-58.4,166.8-142c9.6-47.4,1.6-93.7-22.7-130.4c-1.6-2.4-3.2-4.7-5-7.1l33.5,6.8
			l140.5-576.1l-324-65.7L-2568.4-412.4z"/>
		<path class="st1" d="M-2439.8-126.8c56.7,0,107.1-41.9,119.6-103.5c14.7-72-24.2-130.7-96.2-145.3c-10.3-2.1-20.3-3.1-29.7-3.1
			c-54.6,0-93.5,34.3-105.8,94.7c-15.2,75.2,23.1,141.5,88.8,154.8C-2455.3-127.6-2447.5-126.8-2439.8-126.8 M-2302.9-407.7
			l117.7-482.5l-227.8-46.2l-98.6,486.3L-2302.9-407.7 M-2439.8-30.5L-2439.8-30.5c-14.2,0-28.5-1.4-42.5-4.3
			c-59.2-12-108.6-47.7-139-100.5c-28.1-48.9-37-108.4-25-167.7c5.3-26.1,14.2-49.8,26.1-70.8l-4.9-1l19.1-94.3l98.6-486.3
			l19.1-94.3l94.3,19.1l227.8,46.2l98.1,19.9l-23.7,97.3l-117.7,482.5l-17.7,72.6c7.8,32,8.3,66.5,1.3,101.2
			C-2247.1-106.5-2337-30.5-2439.8-30.5L-2439.8-30.5z"/>
	</g>
	<g>
		<path class="st2" d="M-2416.4-375.5c72,14.6,110.9,73.2,96.2,145.3c-1,4.9-2.3,9.7-3.8,14.3c-19-39.1-56.6-73.2-99.4-83
			c-43.5-10.1-88.1,4.7-109.3,46.3c-8.7,17-13.1,33.8-14.1,50.1c-8.8-24-11.2-52-5.2-81.4C-2537.5-354.9-2486.4-389.8-2416.4-375.5z
			"/>
	</g>
	<g>
		<g>
			<path class="st0" d="M2190.6-333c-18,0-35.9,2.9-53.2,8.7c-45.6,15.2-82,47.9-102.3,92c-19.9,43.1-22.2,92.5-6.6,139.2
				c13.8,41.1,38.3,73.8,69.7,95.4l-13.9,4l191.8,650.7l333.7-111.5L2394-83.4l-30.7,8.9c14.4-36.1,15.1-78.6,0.2-123.3
				C2336.1-279.9,2268.2-333,2190.6-333z"/>
		</g>
		<g>
			<path class="st1" d="M2308.2,595.6l240.3-80.3L2363.3-24.4l-219.2,63.5L2308.2,595.6 M2193.3-16.9c15.3,0,31.4-2.6,47.8-8.1
				c72.5-24.3,101.3-84,76.7-157.5c-21.2-63.4-72.2-102.4-127.2-102.4c-12.6,0-25.3,2-37.9,6.3c-68.1,22.7-102.8,97.8-78.6,170.3
				C2093.6-50.1,2138.9-16.9,2193.3-16.9 M2244.1,718.6l-28.2-95.7L2051.8,66.4l-15.9-54c-23.1-24.4-41.2-54.8-53.1-90.1
				c-19.5-58.4-16.5-120.4,8.6-174.7c26-56.2,72.4-97.9,130.8-117.4c22.2-7.4,45.3-11.2,68.4-11.2c98.6,0,184.4,66,218.5,168.2
				c8.1,24.2,12.4,48.2,13.3,71.2l2.2-0.6l29.8,86.7l185.2,539.7l31.5,91.8l-92,30.8l-240.3,80.3L2244.1,718.6L2244.1,718.6z"/>
		</g>
	</g>
	<g>
		<path class="st2" d="M2288.2-50.4c12.7-24,14.4-53.9-0.3-77.7c-23-37.4-66.1-60.3-109.3-64.6c-44.2-4.4-91,7-111.5,49.4
			c-4.9-60.3,28.5-116.1,85.6-135.2c68-22.8,139.1,18.2,165.1,96.1C2336.1-127.9,2324.8-80.9,2288.2-50.4z"/>
	</g>
	<g>
		<path class="st2" d="M2488.5,535.4c7.8-59.9,6.6-119.8-6-179.8c-12.5-59.5-32.2-123.9-73.2-170.4c-40.9-46.3-99.8-66-160.4-48.9
			c-25.5,7.2-52.1,21.3-62.1,47.6l-42.7-144.8l219.2-63.5l185.2,539.7L2488.5,535.4z"/>
	</g>
	<g>
		<path class="st3" d="M1595,120.3c18.6,119.6-9.9,339.5-110.4,477.8c-79.8,311.2-558.9,624.4-758.6,648.8l-9-5.9
			c-79.5,42.7-374.8,98.1-514.7,29.9c-254.3-3.7-706.6-346.2-768.8-483.4c-133.6-152.7-189-389.2-167.9-432.7
			c-60.8-72-164.6-483.2,84.5-812.4c99.5-202.6,336.3-410.3,420.1-453.8c352.5-267.7,770.2-194.2,953.9-131.8
			c152.5,47.1,375.4,138.5,438.6,224.2C1348.2-704.9,1650.5-243.4,1595,120.3z"/>
		<g>
			<path class="st4" d="M648,1263.3c57.1-50.9,113.8-101.7,150.2-168.3c27.5,38.1,61.8,73,100.8,93.1
				c-66.8,32.4-127.2,53.2-173,58.8l-9-5.9c-16.5,8.9-42.5,18.2-74.5,27C644.4,1266.4,646.1,1265,648,1263.3z"/>
		</g>
		<g>
			<path class="st4" d="M861.4,1205.3c-51.8,22.5-98.5,37.1-135.4,41.6l-9-5.9c-16.5,8.9-42.5,18.2-74.5,27c1.9-1.6,3.6-3,5.5-4.7
				c53.8-47.9,107-96,143.4-157.1C799.5,1150.3,823.6,1194.3,861.4,1205.3z"/>
		</g>
		<g>
			<path class="st4" d="M126.5,1157c22.9,42.9,54.8,84.4,92,120.4c-5.5-2.1-11.2-4.1-16.3-6.5c-43.4-0.6-92.6-11.2-144.5-28.8
				C86.6,1219.4,111.3,1188.4,126.5,1157z"/>
		</g>
		<g>
			<path class="st4" d="M131.4,1179.3c0.3-4.4,0.2-9.1,0.2-13.7c22.5,39.8,52.2,78.3,87,111.8c-5.5-2.1-11.2-4.1-16.3-6.5
				c-37.3-0.6-78.9-8.5-122.9-21.9C107.8,1238.2,129.2,1210.5,131.4,1179.3z"/>
		</g>
		<g>
			<path class="st4" d="M1595,120.3c18.6,119.6-9.9,339.5-110.4,477.8c-12.9,50.1-36.9,100.1-67.6,149.2
				c-5.3-6.5-11.8-12.4-20.6-17.2c-41.7-23.1-104.9-42.1-152.8-31.6c-59.5,12.9-104,53-154.1,82c41.4-76,87.3-154.5,55.3-241.8
				c-32.3-88.8-112.3-156.2-212.2-140.7c-134.2,20.8-259.9,139.1-364.1,219.4C522.6,652.8,460.4,698.9,443,758
				c-0.8,2.5-0.9,5.1-1.5,7.7c-8.9-40.7-17.9-81.6-30-121.3c-16-52.3-35.2-74.6-90.2-78.6c-45.7-3.3-87.9,7.7-132.9-10.4
				c-31.3-12.5-61.8-27.8-93.6-39c-42.5-15.2-91.7-30.4-136.9-16.2C-234,560.7-178.4,786.4-85.2,923
				c-91.1-40.5-200.7-100.9-279.6-42c-30.6,22.8-32.6,60.7-24.3,97.7c-89.1-73.4-156-144.3-177.3-191.2
				c-133.6-152.7-189-389.2-167.9-432.7c-60.8-72-164.6-483.2,84.5-812.4c99.5-202.6,336.3-410.3,420.1-453.8
				c352.5-267.7,770.2-194.2,953.9-131.8c152.5,47.1,375.4,138.5,438.6,224.2C1348.2-704.9,1650.5-243.4,1595,120.3z M-550.4-271.8
				c-18.1-19.8-54.2-28.5-78.9-16.8c-71,33.6-96.5,132.2-108.2,201.2c-17.1,99.7-22.1,144.9-11.7,326.9c0.6,9.6,8.3,13.6,13.9,7.3
				c3.4-3.8,41.1-50.1,85.4-100.3c14-15.9,65.4-36.5,67.8-60.4c5.9-56.1,34-216.1,43.5-242.9C-523.5-199.2-518.1-236.6-550.4-271.8z
				 M-6.3-62.9c-63.4-93.2-122.4-151.2-229.9-89.3C-343.4-90.6-466.8-3.1-471,134.1c-2.6,84.7,65.5,256.2,141.6,306.2
				c81.7,14.2,183.1-38.9,261.7-80.1c8.6-4.6-9.8-20.2-11.6-30.3c-18.3-111.3,14.5-205.3,70-299.6C7.3,1.7,13.1-34.1-6.3-62.9z
				 M-14.3-389.6C55.5-282,124.8-204.5,151-171.9c117.5-61.9,266.6-67.7,397.8-67.2c28.4-50.7,58-129.5,74.1-201
				c9.3-41.9,16.9-93.7-7.9-132.1c-57.7-89.5-186.2-98.5-282.5-91.2C217.7-654.6,92.9-615.1,21-518.2
				C-10.4-475.9-19.4-442.5-14.3-389.6z M504.5-957.4c-108.2-105.9-369.6-63.6-474.2,30c-10.4,9.2-13.8,27-3.5,37.8
				c36.3,37.9,45.7,57.1,103.6,42.2c85.1-21.9,124.7-57.6,305.3-8.7c10.4,2.8,28.8-47.5,42.7-62.9
				C504.8-948.3,515.3-946.9,504.5-957.4z M950.5-315.2c-142.4-61.7-305.6,111-237.6,250.7C740-8.8,762.4,97.4,810,155.3
				c22.5,52.3,67.5,84.8,141.8,80.2c90.2-5.5,173-27.3,182.4-131.6C1146.9-37.6,1096.9-251.7,950.5-315.2z M1144.4-410.6
				c-9.7,43.5,10.4,70.8,33.3,106c41.5,63.9,70.3,136.3,92.8,208.8c4.8,15.5,45,10.2,59.3,8.7c45.2-4.5,146.1,9.7,225.5,78.9
				c19-32.2-5.9-97.2-11.6-131.9c-8-47.6-21.9-94.8-41.9-138.8c-37.9-82.5-89.3-154.1-177.9-184.9
				C1274.7-481.1,1158.9-475,1144.4-410.6z"/>
		</g>
		<g>
			<path class="st4" d="M1595,120.3c18.6,119.6-9.9,339.5-110.4,477.8c-9.8,38.2-26.1,76.3-46.9,114c-0.4-0.6-0.6-1.4-0.9-2
				c-23.2-41.7-56.7-33.8-98.3-34.3c-37.2-0.5-74.7-2.6-110.6-13.2c-14.7-4.3-27.4-10.4-42.6-6.6c-9,2.2-17.8,8.9-26,16.5
				c10-57.7,8-118.7,1.3-171.5c-7.1-55.5-28.3-121.3-72.7-158.3c-16.3-13.6-39.4-17.8-60.1-18.1c-30.5-0.5-60.5-3-90.9-4.5
				c-61.2-3-103.5,6.3-139.8,57.7c-44.1,62.5-102.4,111-164.7,154.6c-84.2,58.9-169,117.3-187.6,221.3c-0.5,1.5-1.1,2.9-1.5,4.3
				c-0.8,2.5-0.9,5.1-1.5,7.7c-8.9-40.7-17.9-81.6-30-121.3c-16-52.3-35.2-74.6-90.2-78.6c-16.4-1.2-32.3-0.5-48.1,0
				c-37.5-16.7-77.8-29.6-113.7-45.6c-50-22.3-98.2-52.2-149.9-70.1c-75-26-163.3-8.4-222.7,46.5c-63.1,58.4-18.4,157.6,6.6,225.2
				c15.1,40.9,30.3,81.8,52.2,119.7c7.7,13.2,16.1,28.3,26.5,41.6c-30.9-13.4-62.9-24.6-92.9-32.3c-59.3-15.3-121.1-13.1-181.2-3.5
				c-35.2,5.6-61.6,20.5-59.3,59.5c0.2,3.2,1,6.6,1.5,9.9c-53.1-50.1-91.6-95.8-106.7-129.2c-133.6-152.7-189-389.2-167.9-432.7
				c-60.8-72-164.6-483.2,84.5-812.4c99.5-202.6,336.3-410.3,420.1-453.8c352.5-267.7,770.2-194.2,953.9-131.8
				c152.5,47.1,375.4,138.5,438.6,224.2C1348.2-704.9,1650.5-243.4,1595,120.3z M-541.8-261c-1.3-2.9-2.6-5.9-4.4-8.7
				c-14.9-24.2-49.3-42.6-76.7-47.9c-52.7-10.2-86,38-104.2,80c-23.1,53.7-32.5,113.1-39.8,170.8c-13.4,105.8-11.3,217.1,17,320.3
				c2.4,8.7,14.6,12.8,21,5.5c15.5-17.6,27.5-35.9,37.1-56.7c20.5-19.8,41.4-39,61.5-58.9c15.1-14.9,45.8-33.4,48.3-57.2
				c5.9-56.1-7.7-108,10.8-164.7c8.8-27,23.2-51.5,32.7-78.2C-525-194.9-519.4-228.9-541.8-261z M-286.3-280.4
				C-397.6-206.2-475.5-59.1-487.9,73.1c-12.6,133.9,38.2,290.8,152.2,370.7c5.5,3.8,10.7,1.7,13.6-2.4c80.4,9.9,178-41.1,254.3-81
				c7.5-4,4.8-53.6,3.3-68.2c-3.6-36.2,5.7-46.2,10.1-69.2c8.9-47.2,22.1-93.1,43.2-136.4C20.1,22.6,55.2-42.6,28.8-114.2
				C6.2-175.1-51.7-231.3-103.8-267.9C-160.9-308-225.2-321.1-286.3-280.4z M520.9-999.8c-23.9-21.9-73.3-30.7-103.6-37.6
				c-45-10.2-91.1-15.9-137.3-14.4c-80.4,2.6-177.2,11.3-244.4,60.6c-15.7,11.5-50.8,34.6-46.6,57.9c3.3,18,19.1,32.4,29.8,46.4
				c13.2,17.3,26.1,34.1,37.5,52.6c4.2,6.8,11.7,8,18.6,4.9c3.3-1.5,6.7-2.8,10.1-4.2c61.4-14.1,120.6-30.7,184.2-32.1
				c52.3-1.2,114.1-10.3,161.8,16c7,3.8,14.8,1.5,19.1-5c23.1-34.8,48.4-67.8,71.9-102.1C532.1-971.6,535.1-986.7,520.9-999.8z
				 M651.1-506c-4.2-46.6-22.4-82.2-50.6-118.8c-50.1-64.9-105.6-115.9-187.2-136c-153.8-37.8-335,18.2-429.3,149.1
				c-23.7,32.9-53,76.3-49.5,119.3c3.7,45.5,27.6,82.4,53.7,118.8c32,44.5,63.7,88.3,93.7,134.3c16.9,26,70.3,88.9,78.6,86.9
				c58.7-14.3,117.4-29.9,176.9-40.7c51.8-9.4,111.4-22.1,164.2-15.1c19,2.5,56,12.5,69.2-8.6c22.6-36,31.7-84.1,43.8-124.4
				C630.2-393.4,656.1-450.3,651.1-506z M885.9-443.6c-74-20.6-126.1,3.2-159.6,72c-18.2,37.4-33.2,76.4-50.7,114.1
				c-14.3,30.8-30.9,65.4-21.8,100.3c7.2,27.7,22.1,53.8,37.6,79.5c9.8,35.2,21.4,72.5,37.3,106.9c16.1,64.4,51.6,134.4,101.1,178.8
				c48.1,43.1,127.6,41.3,189.8,36.9c64.4-4.6,100.2-17.3,125.6-78.1c26.6-63.6,47-145.8,37.7-215.3
				c-12.2-91.6-58.1-176.6-110.4-251.6C1027.9-364,962.7-422.2,885.9-443.6z M1535.8-234.2c-35.5-83.6-77.4-166.7-119.2-247.4
				c-26.4-51-71.4-135.2-136.6-143.1c-69.3-8.4-88.6,64.6-115.9,113.1c-12.5,22.1-25.2,43.5-41.9,62.7c-5.6,6.5-11.1,14.2-12,22.8
				c-2.9,25.9,11,51.2,22.9,73.3c39,72.2,63.6,147.2,87.6,224.9c5.5,17.9,11.8,48.3,32.6,55.2c23.8,7.9,50.5,2.1,74.8-0.6
				c86.1-9.6,169.8,40.7,239.4,87c2.2,1.5,4.5-1.3,3.4-3.4c-1.4-2.7-2.9-5.3-4.6-7.9c7.4,4.3,17.9,2.9,19.6-7.7
				C1598.3-79.6,1564.3-167.2,1535.8-234.2z"/>
		</g>
		<path class="st5" d="M1187.2,595.6c4.7-112-10.7-188.6-54.5-324.7c62.7-129.3,89.8-178.4,89.7-286.8
			c264.4-122.2,375.4,117.5,372.5,136.2c18.6,119.6-9.9,339.5-110.4,477.8C1484.2,599.3,1342.9,693.9,1187.2,595.6z"/>
		<g>
			<path class="st2" d="M1595,120.3c8.6,55.3,7,132-7,212.2c-17.4-107.5-67.8-211.6-135.2-258.6c-81.5-57.1-150.1,18-188.9,84.1
				c-45.1,76.5-80,148.6-97.8,228.5c-8.4-34.6-19.2-71.7-33.3-115.5c62.7-129.3,89.8-178.4,89.7-286.8
				C1486.8-138.1,1597.9,101.6,1595,120.3z"/>
		</g>
		<g>
			<path class="st2" d="M1590.1,277.9c-10.4-45.1-15.3-95.1-37.9-136.2c-41.5-75.4-126.3-118.5-211.6-110.5
				c-33.5,3.1-68.1,6.8-90.9,33.9c-24.4,29-33.3,75.3-44.7,110.2c-13.5,41.5-33.8,81.7-36.5,125.8c-1.6,27.8-0.9,55.7-2.1,83.4
				c-0.1,0.6-0.3,1.2-0.5,1.9c-8.4-34.6-19.2-71.7-33.3-115.5c62.7-129.3,89.8-178.4,89.7-286.8
				c264.4-122.2,375.4,117.5,372.5,136.2c7.1,46.2,7.1,107.4-1.2,173C1592.5,288.1,1591.3,282.9,1590.1,277.9z"/>
		</g>
		<path class="st5" d="M-575.4,112.4c31.9,113.2,109.5,218.8,245.9,327.9c60.3,156.5,45.1,245,128.2,357.1
			c-77.8,17.5-227.7,44.6-365.2-10c-133.6-152.7-189-389.2-167.9-432.7C-751.7,334.2-690.7,186.1-575.4,112.4z"/>
		<g>
			<path class="st2" d="M-247.3,717.5c-26.1-24.3-49.7-52.1-69.4-88.4c-28-51.9-38.3-113.4-75.7-159.2
				c-10.8-13.1-36.8-21.4-51.6-27.4c-33.5-13.7-54.2-39.9-85.5-53.1c-27.8-11.6-60.2-16.5-84.9,7.2c-71.5,69-53,176.7-30.9,263.7
				c2.2,8.5,4.9,17.9,8.3,27.6c-82-140.1-114.2-298.4-97.3-333.2c-17.4-20.6,43.7-168.6,159-242.3
				c31.9,113.2,109.5,218.8,245.9,327.9C-284.1,558.3-281.5,637.7-247.3,717.5z"/>
		</g>
		<g>
			<path class="st2" d="M-302.8,648c-23.3-35.1-36.2-75.5-47.2-115.8c-7-25.4-11.6-52.4-27.7-74.1c-32.9-44.3-81.9-72.4-114.9-117.2
				c-22.6-30.6-47.5-72.3-84.5-87c-41.4-16.4-80.7,13.6-101.4,49c-27.1,46.2-33.2,96.8-34.7,149.3c-0.5,18.2-0.8,39.3-0.2,61.5
				c-23.7-76.2-30.7-138.7-20.9-159c-17.4-20.6,43.7-168.6,159-242.3c31.9,113.2,109.5,218.8,245.9,327.9
				c41,106.5,47.2,181.5,73.1,253.9C-273.9,680.9-290.5,666.5-302.8,648z"/>
		</g>
		<path class="st5" d="M88.8,1026.3c98,0.5,220.3,12.3,390.3-69.8c145.8,36.3,213.3,43.1,361.5,19.3C848.6,1188.1,717,1241,717,1241
			c-79.5,42.7-374.8,98.1-514.7,29.9C129.8,1227.2,79.2,1097.8,88.8,1026.3z"/>
		<g>
			<path class="st2" d="M830.1,1086.7c-3.5-7.1-7.5-13.9-12.6-20.1c-87.7-105.3-242,42.6-340.4-46.4c-5.5-4.9-16.5-5.7-22.8-2.2
				c-83.6,46.6-221.7,64.7-230.1,181.3c-2.5,34,11.2,64.3,33.6,90.6c-20.2-4.9-39-11-55.5-19c-72.5-43.7-123.1-173.1-113.5-244.6
				c98,0.5,220.3,12.3,390.3-69.8c145.8,36.3,213.3,43.1,361.5,19.3C842.2,1019.3,837.8,1055.6,830.1,1086.7z"/>
		</g>
		<g>
			<path class="st2" d="M761.1,1017.9c-47.5-3.8-97.2,9.9-144.9,12c-42.8,1.9-98.3,8.6-128.8-28c-2.8-3.4-8.7-3.8-12.4-1.6
				c-56.6,34.8-119.4,49.8-183.2,65.3c-36.8,8.9-111.8,14.5-132.9,52.5c-18.7,33.7-1.8,71.3,16.2,101.7
				c9.1,15.4,17.5,34.8,28.5,51.5c-0.4-0.2-0.8-0.3-1.2-0.5c-72.5-43.7-123.1-173.1-113.5-244.6c98,0.5,220.3,12.3,390.3-69.8
				c145.8,36.3,213.3,43.1,361.5,19.3c1.2,31.7-0.9,59.6-5.1,84.4C818.5,1037,792.4,1020.4,761.1,1017.9z"/>
		</g>
		<path class="st5" d="M46.6-783.3c-69.5,82.7-191.2,172.5-209.4,301.2C-332-421.5-419.2-340.9-492.2-261.5
			c-50.7-30.2-111.7-83.2-157.6-196.1c99.5-202.6,336.3-410.3,420.1-453.8C-112.4-928.6-7.9-912.8,46.6-783.3z"/>
		<g>
			<path class="st2" d="M18-751.5c-13-26.4-36.7-45.7-72.3-45.8c-143.2-0.8-177,159.8-292.6,217.2
				c-83.4,41.4-150.4,102.8-141.7,202.3c2.9,33.1,25,50.1,54.2,57.7c-20.8,19.3-39.8,39-57.7,58.6
				c-50.7-30.2-111.7-83.2-157.6-196.1c99.5-202.6,336.3-410.3,420.1-453.8c117.3-17.2,221.9-1.5,276.3,128.1
				C37.8-772.8,28.2-762.2,18-751.5z"/>
		</g>
		<g>
			<path class="st2" d="M-114.1-843.1c-110.6,0.5-223,80.2-293.5,160.5c-37.4,42.6-73.9,87.2-108.6,132.1
				c-24.8,32-52.6,74.2-37.5,116.8c13.4,37.9,29.4,82.5,62.4,108.1c11.6,9,27.6,18,42.6,19.3c-15.2,14.9-29.9,29.9-43.6,44.8
				c-50.7-30.2-111.7-83.2-157.6-196.1c99.5-202.6,336.3-410.3,420.1-453.8c117.3-17.2,221.9-1.5,276.3,128.1
				c-4.3,5.1-8.7,10.2-13.4,15.4C-1.1-812.5-68.2-843.3-114.1-843.1z"/>
		</g>
		<path class="st5" d="M1054.4-432.2C900.1-510.8,857-529.5,714.6-548.5c-89.1-159.4-177.7-217.2-255.5-274.9
			c50.5-143.9,213.2-237.2,265-219.7c152.5,47.1,375.4,138.5,438.6,224.2C1210.3-647.8,1113.1-509.4,1054.4-432.2z"/>
		<g>
			<path class="st2" d="M1172.4-683.8c-72-145.1-244.8-250.5-400.5-197.6c-98.9,33.6-92.8,98.1-39.9,172.7
				c37.5,52.8,42.2,97.5,103.1,128.9c45,23.2,80.4,55.8,109.7,93.9c-77.3-35.4-128.4-48.9-230.3-62.5
				c-89.1-159.4-177.7-217.2-255.5-274.9c50.5-143.9,213.2-237.2,265-219.7c152.5,47.1,375.4,138.5,438.6,224.2
				C1176.1-771.1,1177.8-726,1172.4-683.8z"/>
		</g>
		<g>
			<path class="st2" d="M1011.1-863c-91.5-54.5-242.1-125.6-347.2-68.7c-36.8,19.9-91,68.8-86,116.4c5.6,52.9,67.4,70.1,94,110.8
				c33.4,51.2,55.8,109.4,114.6,136.1c31.9,14.5,69.8,21.2,96.1,45.7c5.9,5.5,11.5,11.3,17,17.2c-55.3-21.6-104.2-32.4-184.9-43.1
				c-89.1-159.4-177.7-217.2-255.5-274.9c50.5-143.9,213.2-237.2,265-219.7c152.5,47.1,375.4,138.5,438.6,224.2
				c9.8,35.2,13.2,68.9,12.3,101C1132.1-778.4,1068.6-828.8,1011.1-863z"/>
		</g>
		<g>
			<path class="st1" d="M727.8,1251.9c-4.5,3.9-9.3,7.4-13.9,11.2c-4.3,3.5,4-2-1.7,1.4c-2.7,1.7-5.4,3-8.4,4.3
				c-3,1.2-5.9,2.4-8.9,3.5c-13.1,4.9-26.4,9.1-39.8,13c-33.5,9.6-67.8,16.8-102.2,22.6c-79.3,13.2-161.3,20.2-241.4,11.3
				c-41.2-4.5-81.8-13-119.3-31.1c3.3,0.9,6.7,1.8,10,2.7c-92.6-1.6-183.7-37.9-266-77.6c-95.8-46.2-186.3-103.7-271.5-167.3
				c-40.2-30-80.8-61-117.1-95.7c-28.9-27.6-57.9-55.9-84.2-86.1c-11.3-13-22.3-26.3-32-40.5c-3.6-5.3-7.1-10.8-10.3-16.5
				c-1.3-2.3-2.9-4.8-3.8-7.3c-0.2-0.5-0.5-1.1-0.7-1.6c2.2,4.3-1.4-1.6-2-2.3c-2.6-3.1-5.2-6.2-7.7-9.3
				c-39.6-48.6-72.1-102.7-98.2-159.6c-22.8-49.7-41.8-101.5-54.5-154.8c-8.4-35.4-16.7-74.2-11.1-110.6c0.9-6,2.7-11.4,5.4-16.9
				c4.6-9.7,18.5-12.2,27.2-7.1c9.9,5.8,11.7,17.4,7.1,27.2c-1.1,2.3,1.6-5.1,1.1-2.5c-0.1,0.6-0.5,1.2-0.6,1.8
				c-0.4,1.6-0.9,3.3-1.2,4.9c-0.2,0.8-0.2,1.6-0.4,2.4c-0.7,3,0.4-5.1,0.3-1.9c-0.1,2-0.4,4-0.5,6c-0.5,10.1,0.1,20.3,1.1,30.4
				c0.3,2.8,0.6,5.5,0.9,8.3c0.3,2.3-0.2-1.7-0.2-1.7c0.1,0.7,0.2,1.5,0.3,2.2c0.3,1.7,0.5,3.5,0.8,5.2c1.1,6.9,2.3,13.7,3.7,20.5
				c3,15.1,6.7,30,10.8,44.9c20.4,74,50,142.5,90.5,208c10.8,17.6,22.4,34.7,34.9,51.2c9.4,12.5,22.4,24.8,29.8,39.3
				c4,7.9,8.5,15.4,13.4,22.8c2.7,4,5.5,7.9,8.3,11.9c1.5,2.2,3.1,4.3,4.7,6.5c0.7,1,1.5,2,2.3,3c0.5,0.6,3.3,4.3,1.6,2.2
				c-1.7-2.2,0.9,1.1,1.4,1.7c0.8,1,1.7,2.1,2.5,3.1c2,2.5,4.1,4.9,6.1,7.4c3.9,4.5,7.8,9,11.7,13.5c8.8,9.8,17.8,19.3,27,28.7
				c20.9,21.2,44.7,40.2,67.4,59.5c12.3,10.5,24.8,20.8,37.4,31c14,11.3,24.6,19.5,37.5,29.3c28.3,21.5,57.3,42.1,86.8,61.9
				c59.4,39.8,121.2,76.5,185.4,108c15.3,7.5,30.7,14.7,46.3,21.6c3.6,1.6,7.2,3.1,10.8,4.7c0.9,0.4,1.8,0.8,2.7,1.1
				c-2.9-1.2,0.1,0,0.6,0.2c2.1,0.9,4.2,1.7,6.3,2.6c7.4,3,14.8,5.9,22.2,8.8c28.8,10.9,58.2,20.4,88.1,27.4
				c13.5,3.2,27.2,5.7,40.9,7.7c-3.5-0.5-1-0.1,0.9,0.1c1.5,0.2,3.1,0.4,4.6,0.5c3.5,0.4,7.1,0.7,10.7,1c6.2,0.5,12.4,0.7,18.5,1
				c6.2,0.3,11.2,2.4,16.7,4.9c1.5,0.7,3.1,1.4,4.6,2.1c-3.5-1.5,1.2,0.5,2.4,0.9c7.2,2.8,14.5,5.3,21.8,7.5
				c15.5,4.6,31.3,8,47.3,10.5c2,0.3,3.9,0.6,5.9,0.9c0.9,0.1,5.7,0.8,2.7,0.4c4.4,0.6,8.7,1.1,13.1,1.5c8.9,0.9,17.9,1.7,26.9,2.2
				c18.2,1.1,36.4,1.4,54.6,1.1c37.4-0.6,74.8-3.6,111.9-8.4c1.1-0.1,2.1-0.3,3.2-0.4c-0.5,0.1-2.3,0.3,0,0c2.1-0.3,4.2-0.6,6.3-0.9
				c4.5-0.6,9-1.3,13.6-2c8.8-1.4,17.7-2.9,26.5-4.5c16.3-3,32.6-6.3,48.7-10.1c26.8-6.3,53.6-13.5,79.3-23.3c2.4-0.9,4.7-2,7.1-2.8
				c2.5-0.8,4.8-1.7,7.5-1.6c-2.5-0.1-3.6,0.7-0.6,0.1c4.4-0.8,8.9-1.8,13.2-2.9C727.1,1222.5,739.7,1241.4,727.8,1251.9
				L727.8,1251.9z"/>
		</g>
		<g>
			<path class="st1" d="M725.9,1227.1c5.5-0.7-4.3,0.7,1.3-0.2c1.7-0.3,3.4-0.5,5.1-0.8c2.9-0.5,5.8-1,8.7-1.6
				c7.4-1.5,14.7-3.2,22-5.1c15.3-4,30.3-8.8,45.1-14.1c34.9-12.5,67.9-27.5,101.2-44.4c79.5-40.5,155.1-89.4,225.6-143.9
				c75.2-58.2,145.8-123.5,206.1-197.1c53-64.6,99.8-138.2,122.3-219.4c3.4-12.2,10.4-21,17.1-31.4c7.3-11.3,14.1-22.9,20.5-34.7
				c11.9-22.2,22.2-45.3,31.1-68.9c18.3-49,31.1-100.1,39.2-151.8c7.1-45.2,10.4-91.4,8.9-137.2c-0.3-9.4-0.8-18.7-1.7-28.1
				c-0.9-10.3-3.3-18.5-3.3-28c0-11.1,3.1-22.9,4.1-34c1.1-12.5,1.9-25.1,2.3-37.6c3-97.9-16.4-195.3-46.8-288
				c-31.1-94.9-74.5-185.6-126.2-271c-45.8-75.6-98.3-147.9-160-211.4c-12.4-12.8-25.3-25.2-38.6-37c-12.5-11.1-24.4-20.8-36.3-29.4
				c-5.5-4-11.2-7.7-16.8-11.4c-9.1-6-11.6-10.9-18.9-18.8c-12.6-13.7-27-25.8-42.1-36.7c-81.8-59.1-178.6-99-272.8-133.8
				c-72.6-26.9-146.9-52.1-223-67.2c-179.2-35.6-374.8-32.3-551.4,25.4c-52.5,17.2-103.4,39.2-152.1,65.3
				c-25.5,13.7-50.7,28.5-75.5,43.4c-19,11.4-36.6,24.5-55.5,36c-69,41.9-129.5,100-185.8,157.4C-495-652-565.2-569.3-617.1-475.6
				c-5.8,10.4-10.5,21.9-17.3,31.6c-9,12.9-18.5,25.5-27.1,38.6c-15.9,24.3-30.5,49.6-43.5,75.6c-23.8,47.3-42.1,97.2-55.5,148.4
				C-784.2-90.7-792,3.5-785.1,96.9c4.9,67.1,17,135.8,42.1,199.3c1.2,3.1,2.5,6.1,3.7,9.2c-1.9-4.6,1,2.3,1.7,3.7
				c2.1,4.7,4.4,9.4,6.8,14c2.1,4,4.3,7.9,6.8,11.6c1,1.5,2.1,3,3,4.5c2.6,4.3-3-3.4,1,1.3c7,8.4,8.2,20.3,0,28.5
				c-7.2,7.2-21.5,8.4-28.5,0c-1.5-1.8-8.9-11.3-3.6-4.5c-2.2-2.8-4.3-5.5-6.2-8.4c-3-4.4-5.7-9-8.2-13.6
				c-6.5-11.9-11.9-24.3-16.8-36.8c-12.4-31.4-21.2-64.2-28-97.3c-18.9-92-22.9-187.5-11.9-280.8c13.5-115.5,49.7-227.9,109.8-327.7
				c7.3-12.1,15-24.1,22.9-35.8c9.3-13.6,20-26.4,27.5-41.1c13.1-25.7,27.8-50.6,43.7-74.8c32.3-49.3,69-95.9,107.9-140.1
				c66.8-75.9,142.2-146.4,223.7-205.8c13-9.5,26.2-18.6,40.2-26.6c23.7-13.6,44.4-32.6,66.5-48.6c51-36.8,110.3-64.4,168.8-86.9
				c195.8-75.4,412.5-82.6,616-37c82.7,18.5,163.9,45.1,243.2,75.1c55.1,20.8,109.5,43.7,162.2,70c45.7,22.9,90.6,48.4,130.2,80.8
				c15.3,12.5,28.9,26.3,40.7,42.1c-2.4-2.4-4.7-4.7-7.1-7.1c46,28.5,86.1,66.6,122.4,106.3c47.2,51.6,89.3,108,127.1,166.8
				C1507-431.5,1574-284,1604.8-130.2c16.9,84.3,22.2,170.5,9.4,255.8c0-3.5,0-7,0-10.6c16.2,106.6,0.9,220.6-30.9,323
				c-17.5,56.4-41.4,111.9-74.9,160.7c-6.7,9.7-8.7,20-12.4,31.3c-3.6,11.1-7.7,22-12.2,32.8c-9.5,23.2-20.4,45.7-32.7,67.5
				c-52.7,93.4-126.4,174.7-205.7,246.1c-80.1,72.1-168.3,136-261.8,189.5c-71.8,41.1-150.2,80.7-232,96.9c-8.5,1.7-17,2.9-25.6,4
				c-10.7,1.3-19.8-10.1-19.8-19.8C706.1,1235.1,715.3,1228.4,725.9,1227.1L725.9,1227.1z"/>
		</g>
		<path class="st5" d="M-27.4,339.8c14.5-207.6,86.7-344.8,171-444.3c150-42.5,310.1-93.3,449.3-58.3
			C706.4-21.6,766.9,117,815.2,255.8c-67.3,117.7-221.5,259.6-384.3,378.7C269.5,561.2,113.2,472.3-27.4,339.8z"/>
		<g>
			<path class="st2" d="M815.2,255.8c-20,34.9-48.3,72.1-81.7,110.2c12.6-48.2,13-98.8-2.7-144.6C683.9,84.5,537.6,40.2,404,61.1
				C242.7,86.5,108,180.2,107.9,354c0,34.1,5.4,72.2,16.5,109c-52.2-36.7-103-77.2-151.8-123.1c14.5-207.6,86.7-344.8,171-444.3
				c150-42.5,310.1-93.3,449.3-58.3C706.4-21.6,766.9,117,815.2,255.8z"/>
		</g>
		<g>
			<path class="st2" d="M743.2,354.6c10.9-89.2-8.2-182.5-54.8-259.5C619.6-18.5,489.7-106.9,352.4-88.5
				C217.8-70.4,113.7,54,75.4,177.7c-19.6,63.1-24.5,128.7-10.8,193.6c4.1,19.8,9.7,40.7,17.4,60.6c-37.3-28.3-73.9-58.7-109.3-92.1
				c14.5-207.6,86.7-344.8,171-444.3c150-42.5,310.1-93.3,449.3-58.3C706.4-21.6,766.9,117,815.2,255.8
				C797.3,287.2,772.3,320.5,743.2,354.6z"/>
		</g>
		<g>
			<path class="st1" d="M-46.7,339.8c-1.4-60.7,7.9-117,25.4-175.5c9-30.1,19.7-59.6,31.8-88.6c3.2-7.6,5.9-14.2,10.2-23.3
				c3.4-7.3,7-14.5,10.6-21.7C38,17.5,45,4.2,52.7-8.5c14.4-23.8,30.1-47.2,46.1-69.9c7.8-11.1,16-21.9,24.5-32.4
				c2-2.5,4-5.4,6.3-7.6c4-3.9,9.3-5.3,14.5-6.7c9.2-2.6,18.4-5.2,27.5-7.9c70.2-20.1,140.7-40.2,212.9-51.7
				c68.7-10.9,139.8-13.4,207.8,3.1c5.6,1.4,10.3,2.8,14.4,7.3c3.5,3.8,6.6,8.4,9.8,12.5c5.8,7.5,11.6,15.1,17.2,22.8
				c11.3,15.3,22.1,30.9,32.8,46.6c19.8,29.1,38.3,59.1,55.5,89.8c32.7,58.5,60.8,119.2,85.5,181.5c5.9,14.8,11.5,29.6,17,44.5
				c2.7,7.4,5.4,14.8,8.1,22.3c3.7,10.6,1.1,18.1-4.4,27.3c-14.2,23.7-30.4,46.1-47.4,67.9c-83.4,106.9-188.9,196.9-296,279.1
				c-14.4,11-28.8,22-43.2,32.9c-6,4.5-15.3,3.4-21.4,0c-62-34.2-126.5-63.8-189.4-96.2c-35.8-18.4-71.2-37.5-105.7-58.3
				c-16.7-10-32.9-20.6-48.8-31.8c-17.5-12.3-30.4-22.1-46.4-35c-28.6-23.2-55.6-49.8-74.4-81.6c-13-22,21.3-42,34.3-20
				c3.6,6.1,7.5,12,11.7,17.7c0.8,1,3.1,4,1,1.4c1.3,1.6,2.5,3.1,3.8,4.7c2.4,2.9,4.9,5.8,7.5,8.6c11.1,12.3,23.2,23.6,35.8,34.3
				C63.5,408.2,74,416,89.7,426.6c15.7,10.6,31.8,20.5,48,30.2c66.8,40.4,137.2,74.2,207.2,108.6c32.7,16.1,65.3,32.2,96.7,50.7
				c-7.1,0-14.2,0-21.4,0c62.5-44.4,122.4-93,179.5-144.2c51.2-46,100.5-94.7,144-148.1c19.6-24,38.4-50.3,54.3-78.1
				c-0.7,5.1-1.3,10.2-2,15.3c-18.8-53.9-38.4-107.5-61.9-159.6C708.9,45.6,679.8-8.4,646.3-59.7C625.9-91,603.6-121,580.1-150
				c2.7,1.6,5.4,3.1,8,4.7c-54.8-13.1-110.6-11.5-166.2-5c-58.8,6.9-116.7,21.4-173.8,36.9c-33.1,9-66.1,18.6-99.2,28
				c2.9-1.7,5.8-3.4,8.8-5.1c-16.3,19.4-33.3,41.8-46.7,66.1C96,2.7,82.4,30.9,69.6,59.1c-3,6.5-6.9,15.6-9,20.6
				c-0.8,1.9-3.7,8.6-5.3,12.3c-0.9,2-1.7,3.9-2.6,5.9c-0.5,1.2-1,2.4-1.5,3.6c0.6-1.4,0.5-1.3-0.1,0.2
				c-6.5,15.5-12.5,31.2-18.2,47.1C22.2,179,13.4,210,5.8,241.2C-2.5,275.3-7.5,305.3-8,339.8C-8.3,364.8-46.2,364.8-46.7,339.8
				L-46.7,339.8z"/>
		</g>
		<g>
			<path class="st1" d="M815.2,248.8c13.6,0.5,27.4-0.1,40.9,1c14,1.1,27.9,2.5,41.9,3.8c27.6,2.5,55.1,5.5,82.9,6.8
				c49.3,2.3,99.8,0.9,146.5-8.6c10-2,22.1,2.8,24.4,13.9c6,29.1,13.8,57.8,20.7,86.7c10.3,43,20.1,86.1,27.9,129.6
				c6.2,34.6,14.2,72.4,8.9,107.6c-1,6.6-3.2,12.3-6.1,18.3c-6.4,13.3-13.1,26.5-19.9,39.6c-12.7,24.6-26,48.8-40.3,72.5
				c-26.3,43.4-56.1,84.8-90.5,122.2c-35.2,38.3-75.2,71.9-117.5,102.1c-23.9,17.1-48.5,33-73.6,48.2c-3.7,2.2-7.4,4.8-11.4,6.4
				c-5.2,2.1-11.5,2.1-17.1,2.7c-9.5,1-18.9,1.9-28.4,2.6c-18.7,1.5-37.3,2.6-56,3.3c-67,2.5-134.8,0.3-200.9-11.4
				c-23.6-4.1-47.2-9.6-69.4-18.7c-3-1.2-6.4-2.2-9.2-3.9c-6.3-3.8-8.3-9.8-11-16.3c-3.8-9.2-7.2-18.6-10.3-28.1
				c-5.7-17.2-10.3-34.8-14-52.6c-13.7-65.9-14-133-18.6-199.8c-0.5-7.5-1.9-15.2-1.9-22.7c0-7.7,3.7-15.7,6-22.9
				c3.1-10,16.6-11.8,22.1-2.9c3.6,5.8,7.9,11.7,10.1,18.2c2.1,6.2,2.1,13.6,2.6,20.2c1,12.8,1.8,25.7,2.4,38.6
				c1.3,26.1,2.4,52.2,4.4,78.2c4.5,57.6,15,114.2,37.3,167.7c-3-4-6.1-7.9-9.1-11.9c3.2,1.4-2.7-1,2,0.8c1.6,0.6,3.1,1.2,4.7,1.8
				c3.9,1.4,7.9,2.8,11.8,4c8.5,2.7,17.1,4.9,25.8,6.9c19.7,4.5,39.9,7.8,58.9,9.9c50.7,5.8,102,6.9,153.1,5.1
				c32.4-1.1,64.8-3.5,97-7.1c-3.3,0.9-6.7,1.8-10,2.7c60.1-35.8,115.2-73.7,165.1-121.8c45.2-43.7,79.5-89,111.9-142.7
				c18.1-29.9,34.6-60.8,50.2-92.1c3.4-6.8,9-14.6,10.8-21.9c-2.1,8.4-0.2-2,0.5-4.3c1-3.4-0.4,5.4-0.2,1.8c0-0.9,0.2-1.9,0.3-2.8
				c0.1-1.7,0.2-3.4,0.3-5c0.2-4.6,0.1-9.2-0.1-13.8c-0.5-10.3-1.6-20.5-2.8-30.7c-0.1-0.9-0.8-6.1-0.1-0.9
				c-0.2-1.6-0.4-3.2-0.7-4.8c-0.4-2.7-0.8-5.4-1.2-8.1c-1-6.8-2.2-13.6-3.4-20.3c-4.8-27.3-10.5-54.4-16.5-81.4
				c-10.3-46.2-23.2-92-32.7-138.4c8.1,4.6,16.3,9.2,24.4,13.9c-51.5,10.4-104.7,12.5-157.1,10c-29.3-1.4-59.1-3.9-87.9-9.7
				c-14-2.8-27.5-6.1-41-10.5c-13.9-4.5-27.3-11.5-40.3-18.1C805.5,258.7,808.5,248.6,815.2,248.8L815.2,248.8z"/>
		</g>
		<g>
			<path class="st1" d="M1121.8,267.9c35.4-94.1,56.3-192.1,81.5-289.1c0,3.5,0,7,0,10.6c-31.7-109.3-73.2-215.5-117.8-320.2
				c-13.6-31.8-28.3-63.1-44.6-93.6c1.9,1.9,3.7,3.7,5.6,5.6c-27-14.4-54.2-28.9-82.4-40.8c-48.5-20.4-98.9-37.7-149.9-50.6
				c-32.7-8.3-66-15-99.6-18.6c6.3-4.8,12.7-9.6,19-14.5c-24.9,106.5-57.9,212.1-100,313.1c-10.5,25.1-20.1,51.7-36.4,73.7
				c-5.1,7-13.2,10.8-21.7,7.1c-7.6-3.3-12.7-12.1-10.1-20.5c7.3-23,18.6-44.4,28.1-66.6c9.6-22.3,19-46.7,27.7-70.1
				c19.4-52.4,36.6-105.7,51.9-159.5c8.2-29,15.8-58.3,22.5-87.7c1.8-7.7,10.8-15.3,19-14.5c81.5,8.4,159.4,32.4,234,65.8
				c26.3,11.8,52.3,24.3,77.8,37.5c8.8,4.5,17.6,9.2,26.3,14c2.6,1.4,5.2,2.7,7.7,4.2c8.8,5.3,12.3,16.1,16.9,24.9
				c20,38.5,40.1,76.9,58.9,116.1c19,39.6,35,81,50.7,122c14.6,38.2,28.1,76.9,40.4,115.9c2.7,8.7,5.4,17.4,8.1,26.1
				c3.3,10.9,8.1,21.9,5.5,33.3c-3.9,16.9-8.4,33.6-12.5,50.5c-10.1,41.8-19.1,84.5-32.8,125.3c-13.3,39.6-29,78.5-55,111.6
				C1133.8,287.7,1118,278.2,1121.8,267.9L1121.8,267.9z"/>
		</g>
		<g>
			<path class="st1" d="M709.7-537.4c-18.4-28.7-38.5-54.4-59.4-79.9c-25.7-31.3-52.5-61.8-81.1-90.6c-13.9-14-28.2-27.7-43-40.8
				c-7-6.3-14.1-12.4-21.4-18.4c-3.3-2.7-6.7-5.5-10-8.1c-0.8-0.6-4.2-3.3-3.3-2.6c0.7,0.5-3-2.3-4-3c-11.4-8.6-24-19-37.2-24.7
				c2.7,1.2-3.1-0.7-3.9-0.9c-2.5-0.7-4.9-1.4-7.4-2.1c-5.7-1.6-11.5-3.1-17.2-4.5c-10.9-2.7-22-5-33.1-7
				c-87.7-15.7-179.5-3.6-265,23.7c-12.8,4.1-25.5,8.8-38.1,13.6c-5.8,2.2-11.6,4.5-17.3,6.9c-3.8,1.6-9.6,3.3-11.9,4.8
				c-5.6,3.8-10.5,10.4-15.4,15c-17.9,16.9-35.6,33.9-52.4,51.9c-53.5,57.2-97.2,126.2-128.7,198.5c-4.5,10.3-8.7,20.6-12.7,31.1
				c-1.7-6.4-3.4-12.8-5.1-19.2C-69.5-400,16-303.2,97.7-203.4c20.9,25.5,44.1,50.7,60.2,79.6c9.6,17.3-12.9,34.8-27.3,21
				c-20.6-19.7-37.2-43.4-55.1-65.5c-19.6-24.1-39.4-48-59.5-71.7c-42.4-50.1-85.6-99.5-129.7-148.2c-23.7-26.2-47.8-52-72.2-77.7
				c-4.6-4.8-7.5-12.7-5.1-19.2c31.4-83.6,79.6-158.6,140.3-223.9c19.4-20.8,39.3-41.1,60.2-60.5c6.6-6.2,13.3-12.2,19.8-18.5
				c2.1-2,4.1-4.3,6.2-6.3c5.1-4.6,12.9-6.8,19.2-9.6c7.4-3.3,14.9-6.5,22.4-9.7c47-19.7,95.4-37.2,145.8-45.5
				c46.1-7.6,92.9-9.8,139.3-4.7c23.6,2.6,47,6.7,70.1,12.4c12,2.9,25.7,5.3,36.8,10.8c6.1,3.1,12,7,17.7,10.7
				c31.2,20.5,59.8,45.3,86.9,70.9c30.8,29.1,61.2,60.1,87.3,93.5c22.5,28.8,45.4,61.6,61.1,96.6c3.3,7.4,5.9,14.9,8.2,22.7
				C734.2-533.5,716.5-526.8,709.7-537.4L709.7-537.4z"/>
		</g>
		<g>
			<path class="st1" d="M-157.1-472.3c-31.5,15.5-62.3,32.9-92.2,51.2c-36.7,22.4-73.1,45.3-107.9,70.5c-32,23.2-62.8,47.7-92.4,75
				c-6.5,6-12.9,12.1-19.1,18.3c-2.8,2.8-5.4,5.7-8.3,8.5c1.4-1.4,1.6-2.8,0.7-0.5c-0.4,1.1-1.1,2.2-1.6,3.3c-0.9,2-1.8,4.1-2.7,6.1
				c-0.5,1,1.7-4.2,0.3-0.6c-0.5,1.3-1.1,2.6-1.6,3.9c-2.2,5.7-4.4,11.4-6.4,17.2c-23.8,67.5-41,137.7-56.3,207.6
				c-7.6,34.9-13.2,67.9-14.8,102.4c-0.3,6-1.3,15.2,0,20c2.7,10.3,8.2,20.7,12.5,30.3c9.4,21.1,20.5,41.4,32.5,61.1
				c48.7,80.3,111.9,152.7,184.1,212.7c8.9,7.4,18,14.7,27.2,21.7c-5-0.7-10.1-1.3-15.1-2c33-5.2,65.3-15.6,96.7-26.5
				c41.2-14.3,81.6-31,120.7-50.4c23-11.4,44.9-24.7,68.6-34.5c16.1-6.7,29.4,18.1,16.9,29c-22.6,19.7-50.3,32.5-77.2,45.3
				c-26.9,12.8-54.5,24.5-82.3,35.2c-42.8,16.4-87.6,32.8-133.1,39.6c-12.6,1.9-19.6-5.4-28.8-12.6c-6.5-5.1-12.9-10.2-19.2-15.5
				c-12.3-10.1-24.3-20.6-36-31.3c-22.8-20.9-44.7-42.9-64.8-66.4c-39.7-46.5-74-97-100.7-152.1c-6.5-13.4-12.7-27.1-18.6-40.8
				c-2.9-6.7-5.7-13.5-8.4-20.3c-2.8-7.2-6.6-14.6-6.9-22.3c-0.8-20.1,2-40.6,4-60.5c5-49.7,12.4-99.1,23.7-148
				c10-43.3,21.2-86.7,35.7-128.8c4.9-14.2,10.2-28.6,16.9-42.1c4.5-9.1,13.7-16.5,20.9-23.5c8.6-8.3,17.4-16.4,26.3-24.3
				c41.2-36.3,85.5-69.4,131.3-99.7c43-28.5,88.1-54.8,137.6-70.3c9.6-3,19.1-5.2,29-6.8c5.6-0.9,11,1,13.4,6.6
				C-150.4-481.6-152-474.8-157.1-472.3L-157.1-472.3z"/>
		</g>
		<g>
			<path class="st1" d="M-318.6,437.3c15.4,41.1,25.2,84.2,37.2,126.4c12.2,43.1,26.5,85.6,42.9,127.3c7.3,18.7,15.1,37.2,23.5,55.4
				c3.7,8.2,7.5,16.3,11.4,24.4c2.1,4.2,4.1,8.4,6.3,12.6c1,2,2.4,4,3.1,6.1c-0.9-2.4-1.4-1.4-0.3,0c13.7,16.9,30.9,31.6,46.7,46.5
				c23.4,22.1,46.1,44.7,70.6,65.7c25.5,21.8,52.9,42.3,81.4,60.1c13.9,8.7,28.1,17,42.6,24.6c6.7,3.5,13.5,6.8,20.3,10.1
				c2.7,1.3,5.4,2.6,8.1,3.8c1.6,0.7,3.2,1.4,4.8,2.1c-3.8-1.6,2.6,1.1,3.3,1.3c2.8,1.1,6.1,2.9,9.1,3.4c-3.6-0.6,5.3-0.3,4.7-0.3
				c2.3,0,4.6-0.1,6.9-0.1c11.4-0.1,22.9-0.3,34.3-0.1c21.4,0.3,42.8,0.5,64.3,0.3c45.2-0.4,90.2-3.1,134.2-12.8
				c23.3-5.1,46.3-12.1,68.4-21.2c23.8-9.8,45.2-24.5,69.3-33.3c16.8-6.2,28.6,17.4,16.9,29c-17.4,17.2-41,27.7-63.3,37.2
				c-21.3,9.2-43.1,16.8-65.6,22.6c-41.9,10.7-85.3,15.2-128.4,16.8c-43.8,1.7-87.6,1-131.4,0.3c-10.1-0.2-18.6-0.5-28-4.4
				c-7.3-3-14.6-6.3-21.7-9.8c-14.3-7.1-27.9-15.7-41.3-24.5c-58.6-39-113.8-83.9-168-128.4c-20-16.4-39-34-57.2-52.4
				c-2.9-2.9-5.8-5.9-8.6-8.9c-6.4-7-10.2-15.9-14.4-24.4c-9-17.9-17.3-36.1-25.1-54.5c-20.1-47.3-37.7-95.8-52.4-145
				c-14.8-49.3-28.9-101.1-26.7-153C-340.2,427.2-323,425.5-318.6,437.3L-318.6,437.3z"/>
		</g>
		<g>
			<path class="st1" d="M-195.7,809.9c-8.9,12.8-25.2,15.1-39.6,18.1c-13.6,2.8-27.3,5-41,6.9c-27,3.8-54.2,6.1-81.5,6
				c-49-0.3-97.9-6.1-146-15.4c-21.8-4.2-43.4-9.6-64.9-15.4c-11.6-3.2-18.8-15.9-15.6-27.5c3.2-11.8,15.8-18.6,27.5-15.6
				c86.8,22.4,173,36.4,263,29.4c14.1-1.1,28-2.8,41.8-5.5c16.1-3.1,34.6-10.9,50.3-3.7C-193.9,790.7-190.9,803.1-195.7,809.9
				L-195.7,809.9z"/>
		</g>
		<g>
			<path class="st1" d="M-563.4,119.4c-5.6,8.8-9.7,17.6-17.2,25c-7.6,7.5-14.6,15.3-21.5,23.4c-14.2,16.8-25,31.1-38,48.8
				c-24.2,33.1-46.4,67.9-63.1,105.4c-0.2,0.3-1.4,3.3-0.4,0.8c1.2-2.9-1,2.5-1,2.5c-0.8,2-1.5,3.9-2.3,5.9c-1.5,4-2.8,8.1-4,12.1
				c-3.7,12.5-4.8,29.1-21,31.9c3.9-3,7.9-6,11.8-9.1c-0.4,0.7-0.8,1.4-1.1,2.2c-7.5,14.6-30.2,10.6-34.3-4.5
				c-0.2-0.8-0.4-1.6-0.6-2.4c3,3.9,6,7.9,9.1,11.8c-22.2-10.8-8.2-43.3-1.4-60.1c7.9-19.4,17.3-38,27.9-56.1
				c23.3-39.7,51.1-76.7,82.3-110.6c8.1-8.7,16.6-17.1,24.9-25.5c4.8-4.8,9.4-9.7,15.3-13.2c5-2.9,10.5-4.9,15.8-7.3
				C-570.7,95.2-555.4,106.7-563.4,119.4L-563.4,119.4z"/>
		</g>
		<g>
			<path class="st1" d="M-495.7-248.9c-13.8-2.6-27.4-10.9-38.8-18.9c-11.8-8.3-22.9-17.8-33.5-27.5c-19.5-17.6-37-37.1-52.8-58.1
				c-12.6-16.8-24.1-34.7-33.1-53.8c-6.6-14-21.8-42.5-11.5-57.5c7.3-10.7,19.2-11.4,28.9-3.7c7.2,5.6,7.8,17.2,10.5,25.4
				c1.1,3.4,2.4,6.6,3.7,10c0.8,2.1,0.8,2-0.1-0.3c0.4,1,0.9,2,1.4,3c0.9,2.1,1.9,4.2,2.9,6.2c8.8,17.9,19.6,34.8,31.6,50.7
				c12.3,16.4,29.4,35.5,45.7,51c19.3,18.3,43.7,33.2,59.8,54.4C-473.4-258.1-485.9-247.1-495.7-248.9L-495.7-248.9z"/>
		</g>
		<g>
			<path class="st1" d="M39.7-781.4c-3.9-11.2-16.1-19.8-22.5-29.6c-3.3-5-6.5-10.1-10-15c-0.8-1.1-1.6-2.2-2.4-3.3
				c-1.9-2.6,3.1,3.5-0.4-0.4c-2.1-2.4-4.1-4.9-6.3-7.3c-4-4.3-8.3-8.4-12.7-12.2c-0.8-0.7-7.2-5.7-3.5-2.9
				c-2.6-1.9-5.2-3.8-7.9-5.6c-9.9-6.6-20.4-12.3-31.3-17.2c-0.7-0.3-5.8-2.4-1.2-0.6c-1.5-0.6-3-1.2-4.5-1.8c-2.5-1-5.1-2-7.7-2.9
				c-5.6-2-11.3-3.8-17.1-5.5c-11.3-3.3-22.8-5.9-34.3-8c-3.1-0.6-6.1-1.1-9.2-1.5c-1-0.2-2-0.3-3-0.4c-5.2-0.8,4.6,0.5-0.6-0.1
				c-5.4-0.6-10.8-1.2-16.2-1.7c-10-0.8-20-1.1-30-1c-5.2,0.1-10.4,0.3-15.6,0.7c-2.2,0.2-4.3,0.4-6.5,0.6c-0.7,0.1-1.4,0.2-2.1,0.2
				c-3.7,0.3,5.8-1,0.5-0.1c-3.5,0.6-6.9,1.2-10.4,2c-1.5,0.4-2.9,0.8-4.3,1.2c-0.6,0.2-1.3,0.5-1.9,0.7c-4,1.1,4.7-2.1,2-0.9
				c-10.1,4.5-22,2.9-28-7.3c-5.1-8.7-2.8-23.5,7.3-28c15.8-7,33.1-9,50.3-9.8c23.2-1.1,46.4,0.9,69.4,4.4
				c51.6,7.8,104.5,27.8,142.2,64.9c10.6,10.5,20.7,22.7,27.1,36.3c4,8.6,5.7,17,6.1,26.4c0.3,7.9-1.7,15.8-1.2,23.6
				C54.2-774.9,42.2-774.2,39.7-781.4L39.7-781.4z"/>
		</g>
		<g>
			<path class="st1" d="M452.1-825.4c0.4-3-0.6-6.2,0.1-9.4c0.6-3,1.6-5.9,2.7-8.7c2.7-6.8,5.6-13.7,8.9-20.3
				c5.9-11.9,13.2-23.3,20.8-34.2c15.7-22.4,35-42.7,55.1-61c39.7-36.2,86.9-64.6,136.9-83.9c12.2-4.7,25.3-10.1,38.3-11.8
				c7.2-1,14.3,0.3,19.9,0.7c6.4,0.5,12.5,3.4,18.7,5.2c5.9,1.7,7.1,10,1.7,13c-4.3,2.5-7.3,5.9-11.4,8.4c-4.4,2.7-9.3,5.2-13.9,7.7
				c-10.3,5.7-22.8,7.7-33.9,11.7c-21.2,7.6-41.7,17.4-62.7,29.6c-44,25.7-83.2,57.1-116.7,96.3c-8.8,10.3-17.7,20.6-25.7,31.5
				c-4.4,6-8.8,12-13.1,18c-2.1,3-4.3,6.1-6.7,8.8c-1.1,1.2-2.4,2.3-3.7,3.2c-3.4,2.2-0.6-0.6-3.1,2.3
				C459-812.2,451.2-819,452.1-825.4L452.1-825.4z"/>
		</g>
		<g>
			<path class="st1" d="M1046.5-432.2c-0.7-11.1,5.2-21.2,10.6-30.5c5.6-9.6,12-18.6,17.6-28.2c12.9-22.3,26.5-43.8,37.6-67.1
				c23.5-49.4,39.9-104.4,42.5-159.4c1.5-32.6-1.9-64.8-11-96.2c-7.2-24.6,31.1-35.1,38.3-10.6c34.1,116.9-4,246.3-68.5,345.8
				c-7.7,11.9-16.9,23.3-26.2,34c-8.6,9.8-19.4,19.3-32.8,20.2C1050-424,1046.8-428.2,1046.5-432.2L1046.5-432.2z"/>
		</g>
		<g>
			<path class="st1" d="M1227.2-25.6c3.7-1,7.5-2,11.2-3c-1.9,1.9-3.8,3.8-5.8,5.8c3.7-17.8,32-20.3,46.4-22
				c14.5-1.7,29-3.2,43.5-3.8c28.9-1.2,57.7,0,86.2,4.3c53,7.9,102.9,30.6,141.6,68c12.2,11.8,23,24.9,32.9,38.6
				c10.3,14.2,23.2,31.4,27.7,48.5c4.5,17.3-19.1,33.8-31.9,18.6c6.2,1.6,12.4,3.3,18.6,4.9c-5.7,2.3-14.7-0.3-18.6-4.9
				c-10.4-12.5-17-28.2-26.3-41.6c-7.2-10.5-13.8-18.8-23.5-28.9c-4.4-4.6-8.9-9-13.6-13.2c-2.2-2-4.4-3.9-6.6-5.7
				c-1.2-1-2.5-2-3.7-3c-1.1-0.9-1-0.8,0.2,0.2c-1-0.8-2-1.5-3.1-2.3c-9.6-7-19.8-13.2-30.4-18.6c-11.6-5.9-17-8.1-30.5-12.3
				c-11.7-3.7-23.7-6.6-35.9-8.7c-3.2-0.6-6.4-1-9.5-1.5c-0.6-0.1-3.9-0.5-0.5-0.1c-1.3-0.2-2.6-0.3-3.9-0.5
				c-6.9-0.8-13.8-1.4-20.8-1.8c-13.4-0.8-26.8-0.9-40.1-0.5c-15.9,0.4-31.8,1.3-47.6,2.7c-14.6,1.2-41.7,5.8-50.1-9.9
				c2.4,1.4,4.8,2.7,7.1,4.1c-3.9,0.1-7.7,0.3-11.6,0.5C1221.2-11.5,1219.7-23.6,1227.2-25.6L1227.2-25.6z"/>
		</g>
		<g>
			<path class="st1" d="M1189.8,586.2c1.4,0.5,2.8,0.9,4.3,1.3c1.6,0.4,3.2,0.8,4.9,1.1c2.2,0.5-1.3-0.1-1.4-0.1
				c1.6,0.3,3,0.5,4.5,0.8c1.5,0.3,3,0.4,4.4,0.8c3.8,1,7.3,3,10.9,4.6c1.5,0.7,3,1.3,4.4,1.9c-4.5-1.9,1.8,0.7,3,1.2
				c4.6,1.8,9.2,3.5,13.8,5.4c-4.2-1.7,1.4,0.5,2.5,1c2.5,1,5,2,7.6,2.9c43.9,16,86.9,23.3,132.1,14.5c15.9-3.1,31.7-7.7,46.6-14.1
				c8.1-3.4,15.9-7.4,23.6-11.7c9.3-5.2,18.4-13,28.7-15.7c14.6-3.8,31.3,13.7,21.2,27.6c-10.8,14.9-31.6,24.1-48.1,31.7
				c-15.4,7.1-31.4,13.2-47.9,17.4c-28.2,7.2-57.8,9.7-86.8,7.1c-42.8-3.9-84.9-16.5-120.2-41.4c-4.5-3.2-7.9-6.8-11.3-11.1
				c-1.4-1.8,3.3,4.6-0.1-0.1c-0.7-1-1.4-2-2.1-2.9c-0.6-0.9-1.2-1.8-1.9-2.6c-1.2-1.7-2.5-3.3-3.7-5
				C1174.1,593.7,1181.9,583.5,1189.8,586.2L1189.8,586.2z"/>
		</g>
		<g>
			<path class="st1" d="M848.1,971.4c5,11.3,10.2,21.6,12.4,33.9c2.1,11.9,3,23.6,2.3,35.6c-1.3,24.8-7.7,47.8-17.2,70.6
				c-17.3,41.5-41.8,79.5-71.3,113.4c-10.5,12.1-21.6,23.4-34.4,33c-5.3,4-14.7,3.5-20,0c-0.2-0.2-0.4-0.3-0.7-0.5
				c-1.2-0.9-2.4-1.9-3.6-2.8c3.4,2.3,4.4,3.1,3.1,2.4c-0.1-0.2-1-0.6-1.2-0.7c-3.9-2.6-7.6-7.3-7.1-12.3c0.4-3.5,1.2,4.9,0.3,2
				c-2.7-9.2,2.1-17.1,9.1-22.4c-6.3,4.7,0-0.1,1.5-1.4c2.1-1.8,4.2-3.7,6.2-5.7c4.9-4.7,9.6-9.6,14.2-14.7
				c5.8-6.4,11.3-13,16.6-19.7c0.5-0.7,1.1-1.4,1.6-2.1c1.9-2.4-1.7,2.3,0.2-0.2c1.3-1.7,2.6-3.4,3.8-5.1c3.2-4.3,6.3-8.7,9.3-13.1
				c11.9-17.4,22.6-35.8,31.5-54.9c4.2-9.1,7.4-16.9,11-27.9c3.4-10.4,6.3-21.1,9-31.7c3.1-12,4.7-22.5,5.8-33.9
				c1.2-12.3,2.7-25.5,1.3-37.7C831,967.4,844.7,963.7,848.1,971.4L848.1,971.4z"/>
		</g>
		<g>
			<path class="st1" d="M101.2,1026.3c-0.9,32.5,7.9,63,19.8,94.5c6.1,16.1,14.3,33.2,23.6,49.6c4.6,8.2,9.6,16.2,14.8,24
				c4.5,6.8,11.3,16.2,14.7,20.5c5.8,7.3,12,14.4,18.5,21.2c3.2,3.3,6.5,6.5,10,9.6c1.5,1.4,3.1,2.7,4.6,4c0.9,0.7,5.9,4.7,2.5,2.1
				c8.5,6.5,13,17.1,7.1,27.2c-4.9,8.4-18.6,13.7-27.2,7.1c-31.1-23.7-55.4-55.4-75.3-88.8c-21.1-35.5-38.1-74.3-43.8-115.4
				c-2.9-21.1-1.3-42.4,7.5-61.9C83.3,1008.6,101.5,1014.6,101.2,1026.3L101.2,1026.3z"/>
		</g>
	</g>
</symbol>
<circle class="st6" cx="130.9" cy="133.2" r="122.3"/>
<use xlink:href="#New_Symbol"  width="5457.2" height="2646.2" x="-2728.6" y="-1323.1" transform="matrix(3.926256e-02 0 0 -3.926256e-02 126.0252 129.7327)" style="overflow:visible;"/>
</svg>
