<?xml version="1.0" encoding="utf-8"?>
<!-- Generator: Adobe Illustrator 24.0.2, SVG Export Plug-In . SVG Version: 6.00 Build 0)  -->
<svg version="1.1" id="Layer_1" xmlns="http://www.w3.org/2000/svg" xmlns:xlink="http://www.w3.org/1999/xlink" x="0px" y="0px"
	 viewBox="0 0 365.2 103.8" style="enable-background:new 0 0 365.2 103.8;" xml:space="preserve">
<style type="text/css">
	.st0{fill:#FCF9F5;}
	.st1{fill:#FFFFFF;}
</style>
<g>
	<g>
		<path class="st0" d="M150.9,78.1c-2.3,0-3.3-3.1-3.3-11.5c0-4.4,2.1-5.5,8.2-5.5c1.6,0,2.9,0,4.1,0
			C158,67.1,155.4,78.1,150.9,78.1 M138.5,72.3c0,2.2,0.2,4.2,0.6,5.8h-32.2c-4.3,0-7-1-7-5v-11H110c0.8-2.5,1.4-4.7,1.7-7.1H99.9
			c0-3.4,0.3-6.4,0.5-9.9c-3.8,1.4-6.9,3-9.3,5.7V55h-5.2c-0.4,3-0.4,5.2-0.5,7.1h5.8v11.5c0,8.1,4.9,11.5,11.6,11.5h43.8
			c5.4,0,9.5-4.4,13.5-14.4v14.4h8.8V55c-4-0.3-7.6-0.6-11.5-0.6C146.3,54.5,138.5,59,138.5,72.3 M184.7,69v-3c0-3.8-0.3-7.1-0.8-11
			h-8.5c0.3,3.8,0.5,7.1,0.5,11v19.2h8.8c0-10.8,3.5-23,12.6-21.7c0-1.9-0.3-6.3-0.8-9.1C189.8,55.1,186.5,61,184.7,69 M63.6,78.1
			c-2.3,0-3.3-3.1-3.3-11.5c0-4.4,2.1-5.5,8.2-5.5c1.6,0,2.9,0,4.1,0C70.7,67.1,68.1,78.1,63.6,78.1 M51.2,72.3
			c0,9.1,3.3,13.5,7.7,13.5c5.4,0,9.7-4.8,13.7-14.9v14.4h8.8V55c-4-0.3-7.6-0.6-11.5-0.6C59,54.5,51.2,59,51.2,72.3 M30.5,76.8
			l-0.5-0.2c-5.3-2.8-12.4-7.1-12.4-14.9c0-7.1,4.6-10.5,10.2-10.5c6.2,0,9.9,4.3,9.9,11.9C37.8,68.3,34.9,73,30.5,76.8 M47.4,85.8
			l-14.5-7.7c8.2-3,14.2-8.9,14.2-17.2c0-11.2-8.4-16.9-19.2-16.9c-9.9,0-19.5,6.4-19.5,18.7c0,10.4,7.9,16.6,16.6,21.2l27.9,14.6
			C52.9,92,52.1,88.3,47.4,85.8"/>
	</g>
	<g>
		<path class="st0" d="M352.4,59c0-7.5-5.2-12.1-14.6-12.1c-5.2,0-9,1.1-11.3,2.2c-1.3,1.9-1.9,4-2.7,7.4c3.5-1.4,6.9-2.5,12.1-2.5
			c4.1,0,7.4,1.8,7.4,6.6c0,5.2-3.2,9-20.9,19.2c0,1.1,0.1,3.3,0.6,6h29.1c0.8-2.5,1.4-4.7,1.7-7.1H329
			C341.3,74.5,352.4,70.1,352.4,59L352.4,59z"/>
		<ellipse class="st0" cx="267.9" cy="66.7" rx="5" ry="4.8"/>
		<ellipse class="st0" cx="267.9" cy="66.7" rx="5" ry="4.8"/>
		<path class="st0" d="M267.8,46.9c-11,0-19.2,6.6-19.2,17.3c0,14,13.5,22.3,19.2,22.3c5.8,0,19.2-8.2,19.2-22.3
			C287,53.5,278.7,46.9,267.8,46.9z M267.8,83.1c-2.5,0-10.2-5-10.2-18.4c0-6.6,3.8-10.7,10.2-10.7c6.3,0,10.2,4.1,10.2,10.7
			C277.9,78.1,270.2,83.1,267.8,83.1z"/>
		<ellipse class="st0" cx="267.9" cy="66.7" rx="5" ry="4.8"/>
		<path class="st0" d="M318.3,59c0-7.5-5.2-12.1-14.6-12.1c-5.2,0-9,1.1-11.3,2.2c-1.3,1.9-1.9,4-2.7,7.4c3.5-1.4,6.9-2.5,12.1-2.5
			c4.1,0,7.4,1.8,7.4,6.6c0,5.2-3.2,9-20.9,19.2c0,1.1,0.1,3.3,0.5,6H318c0.8-2.5,1.4-4.7,1.6-7.1h-24.8
			C307.3,74.5,318.3,70.1,318.3,59L318.3,59z"/>
		<path class="st0" d="M244.1,59c0-7.5-5.2-12.1-14.6-12.1c-5.2,0-9,1.1-11.3,2.2c-1.3,1.9-1.9,4-2.7,7.4c3.5-1.4,6.9-2.5,12.1-2.5
			c4.1,0,7.4,1.8,7.4,6.6c0,5.2-3.2,9-20.9,19.2c0,1.1,0.1,3.3,0.6,6h29.1c0.8-2.5,1.4-4.7,1.6-7.1h-24.8
			C233.1,74.5,244.1,70.1,244.1,59L244.1,59z"/>
	</g>
</g>
<g>
	<g>
		<path class="st1" d="M133.2,37.8V16.3h-7v-3.4h18.3v3.4h-7v21.4H133.2z"/>
		<path class="st1" d="M148.4,37.8V12.9h8.2c5.4,0,9.2,2.2,9.2,7.2v0.1c0,1.9-0.6,3.5-1.6,4.6c-1.1,1.1-2.4,1.8-4,2.2l7.1,10.8h-4.7
			l-6.7-10.2h-3.2v10.2H148.4z M152.7,24.5h3.9c3.2,0,4.9-1.3,4.9-4.1v-0.1c0-2.9-1.8-4-4.9-4h-3.9V24.5z"/>
		<path class="st1" d="M171.2,37.8V12.9h4.3v24.9H171.2z"/>
		<path class="st1" d="M187.8,37.8l-8.4-24.9h4.5l6.7,20.5l6.7-20.5h4.1l-8.5,24.9H187.8z"/>
		<path class="st1" d="M205.1,37.8V12.9h4.3v24.9H205.1z"/>
		<path class="st1" d="M213.6,37.8l8.4-24.9h5.6l8.2,24.9h-4.4l-2.1-6.4h-9.7l-2.1,6.4H213.6z M224.5,16.5l-3.8,11.8h7.6L224.5,16.5
			z"/>
	</g>
</g>
</svg>
